<?xml version="1.0" encoding="UTF-8" standalone="no"?>
<!-- Created with Inkscape (http://www.inkscape.org/) -->

<svg
   width="297mm"
   height="210mm"
   viewBox="0 0 1122.5197 793.70081"
   version="1.1"
   id="svg5"
   inkscape:version="1.1.1 (3bf5ae0d25, 2021-09-20, custom)"
   sodipodi:docname="nett_hier.svg"
   xmlns:inkscape="http://www.inkscape.org/namespaces/inkscape"
   xmlns:sodipodi="http://sodipodi.sourceforge.net/DTD/sodipodi-0.dtd"
   xmlns="http://www.w3.org/2000/svg"
   xmlns:svg="http://www.w3.org/2000/svg">
  <sodipodi:namedview
     id="namedview7"
     pagecolor="#ffffff"
     bordercolor="#666666"
     borderopacity="1.0"
     inkscape:pageshadow="2"
     inkscape:pageopacity="0.0"
     inkscape:pagecheckerboard="0"
     inkscape:document-units="mm"
     showgrid="false"
     inkscape:zoom="0.89835653"
     inkscape:cx="584.40049"
     inkscape:cy="394.60948"
     inkscape:window-width="2556"
     inkscape:window-height="1392"
     inkscape:window-x="0"
     inkscape:window-y="46"
     inkscape:window-maximized="1"
     inkscape:current-layer="text1715" />
  <defs
     id="defs2">
    <rect
       x="761.43339"
       y="343.00279"
       width="147.32"
       height="48.989999"
       id="rect19297" />
  </defs>
  <g
     inkscape:label="bg"
     inkscape:groupmode="layer"
     id="layer1"
     sodipodi:insensitive="true"
     style="display:inline">
    <rect
       style="fill:#ffff00;fill-opacity:1;fill-rule:evenodd;stroke-width:0.693829;stroke-miterlimit:10;paint-order:stroke markers fill;stop-color:#000000"
       id="rect31"
       width="1122.5197"
       height="793.70081"
       x="-4.4408921e-16"
       y="0"
       ry="0" />
  </g>
  <g
     inkscape:groupmode="layer"
     id="layer2"
     inkscape:label="nett hier"
     style="display:inline"
     sodipodi:insensitive="true">
    <g
       aria-label="Nett hier."
       id="text1715"
       style="font-size:183.162px;font-family:Tinos;-inkscape-font-specification:Tinos;letter-spacing:0px;word-spacing:0px;stroke-width:4.57907">
      <path
         d="m 331.57469,212.34561 c -0.18316,-7.87596 -0.36632,-15.75193 -0.36632,-23.6279 0,-15.56877 0.36632,-31.13754 0.73264,-46.70631 0,-6.59383 0.18317,-13.0045 0.54949,-19.59833 0.36632,-9.52443 0.73265,-18.3162 2.74743,-21.61312 1.83162,-2.93059 6.59383,-3.8464 9.70759,-4.395886 1.83162,-0.183162 3.66324,-0.366324 4.76221,-1.83162 0.36632,-0.549486 0.36632,-1.648458 0.36632,-1.648458 0,-1.282134 -1.09897,-2.564268 -2.3811,-2.930592 -0.91581,-0.183162 -2.01479,0.183162 -2.9306,0.183162 -3.66324,0.366324 -7.14331,0.366324 -10.80655,0.549486 -6.22751,0.183162 -12.63818,0.549486 -18.68253,0.549486 -3.8464,0 -7.6928,-0.183162 -11.90553,-0.366324 -1.28213,-0.183162 -2.56427,0 -3.48008,1.282134 -0.36632,0.549486 -0.54948,1.648458 -0.54948,1.83162 0,3.296916 4.02956,3.296916 4.57905,3.296916 2.74743,0.366324 5.3117,0.549486 7.87596,0.732648 4.94538,0.183162 6.59384,0.366324 8.60862,2.747428 1.64846,1.83162 1.83162,4.94538 2.01478,7.50964 0.91581,8.05913 0.91581,15.9351 0.91581,23.81106 v 50.91904 c -0.18316,0 -0.54949,1.4653 -1.4653,1.4653 -0.73264,0 -1.83162,-1.28214 -3.11375,-2.56427 -0.91581,-1.28214 -1.83162,-2.38111 -2.93059,-3.66324 -6.22751,-7.50964 -13.18767,-15.20245 -20.33098,-23.07841 -4.02957,-4.39589 -8.24229,-8.79178 -12.27186,-13.37083 -8.05913,-9.1581 -15.93509,-18.49936 -23.6279,-27.65746 -2.3811,-3.11376 -15.01928,-18.682526 -18.86568,-21.246794 -0.54949,-0.549486 -1.64846,-1.282134 -3.66324,-1.282134 -0.73265,0 -1.64846,0.183162 -2.38111,0.183162 -6.41067,0.549486 -12.63818,0.91581 -18.86569,0.91581 -3.29691,0 -6.59383,0 -9.89074,-0.183162 -2.56427,-0.183162 -4.94538,-0.549486 -7.50965,-0.549486 -1.83162,0 -3.66324,0 -4.57905,1.648458 -0.36632,0.366324 -0.54948,1.098972 -0.54948,1.648458 0,1.83162 2.01478,2.74743 2.3811,2.930592 1.09898,0.549486 2.56427,0.549486 4.02957,0.549486 1.28213,0.183162 2.74743,0.366324 4.21272,0.549486 0.54949,0 4.94538,0 7.50965,1.465294 4.21272,2.56427 3.8464,8.60862 3.8464,13.73715 0,23.6279 -1.09897,47.2558 -1.09897,70.8837 v 11.17288 c 0.18316,6.22751 0.36632,9.52442 -1.28214,12.08869 -0.36632,0.73265 -1.64846,2.38111 -4.02956,3.29692 -2.74743,1.09897 -5.3117,1.09897 -8.42545,1.64846 -2.38111,0.54948 -5.86119,1.09897 -6.04435,3.8464 0,1.09897 0.54949,1.83162 0.73265,2.19794 0.73265,1.28214 1.64846,1.28214 2.93059,1.28214 2.74743,0 5.49486,-0.18317 8.24229,-0.36633 4.39589,-0.36632 9.1581,-0.73265 13.73715,-0.73265 5.3117,0 10.6234,0.36633 15.93509,0.54949 3.66324,0.18316 7.32648,0.36632 10.80656,0.36632 1.28214,0 2.56427,0.18317 3.48008,-1.09897 0.54949,-0.54948 0.54949,-1.46529 0.54949,-1.83162 0,-2.93059 -2.38111,-3.11375 -4.76222,-3.66324 -8.60861,-2.19794 -14.10347,-2.19794 -17.40039,-5.49486 -3.11375,-3.11375 -3.11375,-8.42545 -3.11375,-9.34126 -0.18316,-2.38111 -0.18316,-4.94537 -0.36632,-7.32648 -0.18317,-6.41067 -0.54949,-13.0045 -0.73265,-19.41517 -0.54949,-10.98972 -0.73265,-21.79628 -0.73265,-32.60284 0,-5.86118 0,-11.72237 0.18316,-17.58355 v -4.94538 c 0,-1.83162 -0.18316,-4.57905 0.54949,-4.57905 0.54948,0 1.46529,1.28214 1.64846,1.64846 6.2275,7.50964 8.79177,10.25707 13.0045,15.01929 6.41067,7.32648 14.10347,15.75193 21.61311,23.81106 8.42546,9.1581 16.48458,17.76671 24.36055,26.37532 9.70759,10.6234 19.41517,21.42996 29.12276,32.05336 2.56427,2.93059 5.3117,5.67802 7.87597,8.42545 1.09897,1.28213 2.19794,2.3811 3.11375,3.48008 1.64846,1.64845 2.56427,2.19794 3.8464,2.19794 0.73265,0 1.64846,-0.18316 2.38111,-1.83162 0.36632,-1.4653 0.18316,-2.74743 0.18316,-4.21273 z"
         style="-inkscape-font-specification:'Garamont Amsterdam BQ'"
         id="path24471" />
      <path
         d="m 420.7746,166.92143 c 2.74743,0 4.76221,0.36633 6.04435,0 1.28213,-0.54948 2.01478,-2.01478 2.01478,-5.67802 0,-6.04434 -3.48008,-10.98972 -4.76221,-12.63818 -3.29692,-4.57905 -12.45502,-13.18766 -27.47431,-13.18766 -17.76671,0 -32.78599,12.27185 -38.83034,28.75643 -2.74743,7.50965 -2.93059,14.65296 -2.93059,17.40039 0,23.6279 14.4698,34.43446 22.89525,38.46403 5.12853,2.3811 10.07391,3.66324 15.56877,3.66324 5.3117,0 9.52442,-1.09898 14.28663,-2.74743 7.87597,-2.9306 12.45502,-6.777 18.31621,-12.82134 2.19794,-2.38111 3.66324,-3.84641 3.66324,-5.3117 0.18316,-1.4653 -0.91581,-2.56427 -2.38111,-2.56427 -1.4653,0 -2.74743,1.28213 -4.02956,2.01478 -9.1581,6.22751 -17.21723,7.87597 -21.79628,7.87597 -7.69281,0 -13.00451,-3.48008 -15.20245,-5.12854 -13.55399,-10.07391 -13.18766,-28.20695 -13.18766,-32.41967 0,0 -0.18317,-4.21273 2.3811,-4.94538 0.91581,-0.36632 16.11826,-0.54948 25.27636,-0.54948 5.49486,0 10.80656,0 16.11826,-0.18317 z m -44.69153,-11.17288 c 3.8464,-9.34126 13.0045,-15.56877 23.26157,-15.75193 1.83162,0 7.50965,0 10.80656,5.12854 1.4653,2.19794 1.64846,4.02956 1.64846,5.12853 0,0.91581 0,2.56427 -1.09897,4.39589 -2.19795,4.21273 -7.14332,4.76221 -11.72237,5.49486 -8.42545,1.4653 -14.4698,2.01478 -17.94988,2.01478 -1.09897,0 -5.49486,0.36633 -5.49486,-3.66324 -0.18316,-1.28213 0.36633,-2.3811 0.54949,-2.74743 z"
         style="-inkscape-font-specification:'Garamont Amsterdam BQ'"
         id="path24468" />
      <path
         d="m 466.19881,159.77812 c 0.18316,-5.3117 0.36632,-9.34127 1.64846,-11.35605 1.28213,-2.01478 4.02956,-1.83162 6.41067,-1.83162 3.8464,0 7.14331,0 10.62339,0.18316 4.57905,0 6.96016,0.73265 8.24229,-1.28213 0.36633,-0.54949 0.91581,-1.4653 0.91581,-3.11375 0,-4.76222 -3.29691,-4.57905 -4.76221,-4.57905 -2.38111,0 -4.39589,0.36632 -6.41067,0.54948 -2.93059,0.36633 -5.67802,0.54949 -8.79178,0.54949 -2.74743,0 -4.02956,-0.36633 -4.76221,-1.09897 -2.19794,-1.83162 -1.64846,-9.89075 -1.46529,-11.90553 0.18316,-1.28214 0.18316,-2.56427 0.18316,-3.84641 0,-2.56426 -0.36633,-3.29691 -1.64846,-3.29691 -1.83162,0 -2.56427,1.83162 -2.93059,2.3811 -0.91581,1.83162 -4.39589,9.34127 -10.25707,14.65296 -3.48008,3.29692 -6.41067,4.57905 -10.98972,6.04435 -1.64846,0.54949 -3.84641,0.73265 -4.02957,3.11375 0,0.91581 0.36633,2.19795 2.01478,2.56427 1.4653,0.36633 2.56427,0.18316 4.21273,0.18316 4.76221,0 4.94537,2.38111 4.94537,4.39589 0.18317,1.4653 0.18317,2.93059 0.18317,4.21273 0,4.94537 -0.18317,9.70758 -0.54949,14.65296 -0.18316,8.24229 -0.36632,16.48458 -0.36632,24.72687 0,9.34126 -0.91581,17.03407 7.32648,22.89525 5.67802,4.21273 11.5392,4.02956 14.10347,4.02956 10.98972,0 17.21723,-3.66324 21.06363,-7.50964 1.83162,-1.64846 2.38111,-2.74743 2.38111,-3.8464 0,-1.28213 -1.09898,-2.74743 -2.56427,-2.74743 -1.09897,0 -1.64846,0.91581 -3.66324,2.01478 -2.01478,1.09897 -4.21273,1.64846 -6.59383,1.64846 -4.76222,0 -9.89075,-2.38111 -12.0887,-6.41067 -2.19794,-3.8464 -2.56426,-10.6234 -2.3811,-20.33098 0,-8.42546 -0.36633,-17.03407 0,-25.64268 z"
         style="-inkscape-font-specification:'Garamont Amsterdam BQ'"
         id="path24465" />
      <path
         d="m 523.52846,159.77812 c 0.18316,-5.3117 0.36632,-9.34127 1.64846,-11.35605 1.28213,-2.01478 4.02956,-1.83162 6.41067,-1.83162 3.8464,0 7.14332,0 10.62339,0.18316 4.57905,0 6.96016,0.73265 8.24229,-1.28213 0.36633,-0.54949 0.91581,-1.4653 0.91581,-3.11375 0,-4.76222 -3.29691,-4.57905 -4.76221,-4.57905 -2.3811,0 -4.39589,0.36632 -6.41067,0.54948 -2.93059,0.36633 -5.67802,0.54949 -8.79178,0.54949 -2.74743,0 -4.02956,-0.36633 -4.76221,-1.09897 -2.19794,-1.83162 -1.64846,-9.89075 -1.46529,-11.90553 0.18316,-1.28214 0.18316,-2.56427 0.18316,-3.84641 0,-2.56426 -0.36633,-3.29691 -1.64846,-3.29691 -1.83162,0 -2.56427,1.83162 -2.93059,2.3811 -0.91581,1.83162 -4.39589,9.34127 -10.25707,14.65296 -3.48008,3.29692 -6.41067,4.57905 -10.98972,6.04435 -1.64846,0.54949 -3.84641,0.73265 -4.02957,3.11375 0,0.91581 0.36633,2.19795 2.01478,2.56427 1.4653,0.36633 2.56427,0.18316 4.21273,0.18316 4.76221,0 4.94537,2.38111 4.94537,4.39589 0.18317,1.4653 0.18317,2.93059 0.18317,4.21273 0,4.94537 -0.18317,9.70758 -0.54949,14.65296 -0.18316,8.24229 -0.36632,16.48458 -0.36632,24.72687 0,9.34126 -0.91581,17.03407 7.32648,22.89525 5.67802,4.21273 11.5392,4.02956 14.10347,4.02956 10.98972,0 17.21723,-3.66324 21.06363,-7.50964 1.83162,-1.64846 2.38111,-2.74743 2.38111,-3.8464 0,-1.28213 -1.09897,-2.74743 -2.56427,-2.74743 -1.09897,0 -1.64846,0.91581 -3.66324,2.01478 -2.01478,1.09897 -4.21273,1.64846 -6.59383,1.64846 -4.76222,0 -9.89075,-2.38111 -12.0887,-6.41067 -2.19794,-3.8464 -2.56426,-10.6234 -2.3811,-20.33098 0,-8.42546 -0.36633,-17.03407 0,-25.64268 z"
         style="-inkscape-font-specification:'Garamont Amsterdam BQ'"
         id="path24462" />
      <path
         d="m 629.5792,83.582723 c -1.28213,0.183162 -2.3811,0.732648 -4.57905,1.83162 -4.21272,2.197945 -8.42545,4.212727 -12.63818,5.861185 -2.01478,0.91581 -4.02956,1.465296 -6.04434,2.197944 -2.19795,0.732648 -2.93059,2.014782 -2.93059,3.296916 0,0.91581 0.73264,1.83162 1.46529,2.197944 1.09897,0.732648 3.11376,1.098968 4.39589,1.465298 4.57905,1.46529 4.57905,4.21272 4.57905,8.60861 0,4.39589 -0.18316,8.79178 -0.18316,13.18767 -0.54949,19.78149 -0.73265,39.37983 -1.28214,59.16132 -0.18316,8.42545 -0.18316,17.03407 -0.36632,25.45952 0,2.74743 -0.54949,4.21273 -1.4653,5.3117 -0.54948,0.91581 -1.83162,1.28213 -2.93059,1.64846 -2.19794,0.54948 -5.12853,0.73265 -6.96015,2.19794 -0.73265,0.54949 -1.09898,1.09897 -1.09898,1.83162 0,1.4653 0.91581,3.11376 3.66324,3.11376 1.28214,0 2.38111,-0.36633 3.66324,-0.54949 3.84641,-0.54949 8.24229,-1.28213 16.85091,-1.28213 3.29691,0 6.59383,0.18316 9.89075,0.54948 3.29691,0.36633 6.41067,0.91581 9.70758,0.91581 2.56427,0 3.29692,-1.28213 3.48008,-2.56427 0,-1.64845 -0.91581,-2.3811 -2.19794,-2.74743 -2.9306,-0.73264 -10.07391,-0.54948 -12.45502,-2.74743 -1.64846,-1.46529 -1.64846,-5.86118 -1.64846,-10.62339 0,-8.24229 0.18316,-16.66775 0.18316,-25.0932 0,-9.89075 -0.73264,-18.49936 7.50965,-25.27635 2.19794,-1.83162 6.41067,-4.39589 13.37082,-4.39589 3.66324,0 7.87597,0.91581 11.35605,2.93059 5.67802,3.48008 6.04434,7.87597 6.2275,14.28664 0.18317,2.01478 0.18317,4.02956 0.18317,6.04434 0,6.22751 -0.18317,12.45502 -0.18317,18.86569 -0.18316,3.29691 -0.18316,6.59383 -0.18316,9.89075 -0.18316,6.59383 0,10.25707 -1.83162,12.82134 -1.83162,2.74743 -5.12853,2.3811 -7.87596,2.74743 -1.83162,0.36632 -3.48008,0.54948 -3.66324,2.74743 0,1.28213 0.91581,2.93059 3.29691,2.93059 1.64846,0 3.29692,-0.18316 4.94538,-0.18316 4.94537,-0.36633 9.70758,-0.73265 14.65296,-0.73265 3.66324,0 7.50964,0.18316 11.17288,0.54949 1.28213,0.18316 2.56427,0.18316 3.8464,0.36632 1.09897,0.18316 2.19794,0.36632 3.11375,0.36632 2.01479,0 2.56427,-1.83162 2.74743,-2.56426 0,-0.73265 -0.54948,-2.19795 -2.56426,-2.9306 -0.36633,0 -1.09898,-0.18316 -2.38111,-0.36632 -4.94537,-0.73265 -6.59383,-2.74743 -7.14332,-5.3117 -0.36632,-1.46529 -0.36632,-5.49486 -0.36632,-9.89075 0,-6.59383 0.18316,-13.0045 0.36632,-19.59833 0,-5.67802 0.36633,-11.53921 0.36633,-17.40039 0,-6.41067 -0.91581,-10.07391 -2.01479,-12.63818 -0.91581,-2.38111 -2.56426,-4.76221 -4.57905,-6.41067 -7.32648,-6.96016 -18.49936,-7.32648 -20.88046,-7.32648 -6.59384,0 -11.90553,1.64846 -17.40039,5.49486 -2.74743,1.83162 -4.21273,3.29692 -5.3117,4.21273 -1.64846,1.64845 -2.93059,2.93059 -3.8464,3.66324 -0.54949,0.18316 -0.91581,0.36632 -1.09898,0.36632 -0.73264,0 -1.83162,-0.36632 -1.83162,-1.64846 0,-2.3811 0.18317,-4.57905 0.18317,-6.77699 0.73264,-12.08869 0.54948,-24.54371 0.73264,-36.99873 0.18317,-3.48007 0.18317,-6.77699 0.54949,-10.257068 0,-2.381106 0.36632,-4.762212 0.36632,-7.143318 0,-0.91581 0.36633,-3.846403 -2.93059,-3.663241 z"
         style="-inkscape-font-specification:'Garamont Amsterdam BQ'"
         id="path24459" />
      <path
         d="m 726.47193,86.146992 c -2.74743,0.183162 -10.44024,2.014782 -10.44024,10.806558 0,6.77699 5.12854,11.53921 11.53921,11.53921 6.59383,0 10.98972,-4.39589 10.98972,-10.806562 0,-7.143318 -4.94537,-12.088693 -12.08869,-11.539206 z m 7.14332,86.635628 c 0.18316,-8.24229 0.18316,-16.66774 0.73264,-24.91003 0.18317,-2.74743 0.36633,-5.3117 0.73265,-8.05913 0.36633,-1.64846 0.91581,-4.57905 0.91581,-4.76221 0,-0.73265 -0.54948,-3.11376 -3.29691,-2.56427 -1.09898,0.18316 -1.64846,0.91581 -3.29692,2.3811 -6.77699,6.22751 -14.10347,8.79178 -17.40039,9.70759 -4.02956,1.09897 -5.3117,0.54949 -7.32648,2.56427 -0.18316,0.18316 -0.73265,0.91581 -0.91581,2.01478 0,0.54949 0.54949,2.01478 2.19794,2.74743 0.91581,0.36632 1.09898,0.36632 2.01479,0.73265 3.48007,0.91581 5.12853,1.64846 6.2275,2.56427 2.38111,2.56426 1.64846,9.34126 1.64846,9.89074 -0.18316,6.41067 -0.18316,12.27186 -0.18316,17.94988 v 13.55399 c 0,3.8464 0.73265,12.45502 -3.11375,15.56877 -1.4653,1.28213 -4.39589,1.83162 -6.41067,2.38111 -1.28214,0.18316 -3.66324,0.36632 -4.57905,2.01478 -0.36633,0.36632 -0.36633,0.54948 -0.54949,1.09897 0,0.91581 0.91581,2.56427 2.74743,2.56427 2.56427,0 4.94537,-0.18316 7.32648,-0.54949 4.39589,-0.36632 8.60861,-0.73265 13.0045,-0.73265 4.02957,0 8.05913,0.36633 11.90553,0.73265 1.28214,0.18316 2.56427,0.54949 4.02957,0.73265 1.09897,0.18316 2.01478,0.36632 3.11375,0.36632 1.64846,0 3.8464,-0.91581 3.8464,-2.3811 0,-2.74743 -3.29691,-2.93059 -5.12853,-3.29692 -2.56427,-0.73265 -5.86119,-2.19794 -6.96016,-4.57905 -1.09897,-2.3811 -1.09897,-5.12853 -1.09897,-7.87596 -0.18316,-5.12854 -0.18316,-10.07392 -0.18316,-14.83613 z"
         style="-inkscape-font-specification:'Garamont Amsterdam BQ'"
         id="path24456" />
      <path
         d="m 817.68663,166.92143 c 2.74743,0 4.76221,0.36633 6.04435,0 1.28213,-0.54948 2.01478,-2.01478 2.01478,-5.67802 0,-6.04434 -3.48008,-10.98972 -4.76221,-12.63818 -3.29692,-4.57905 -12.45502,-13.18766 -27.4743,-13.18766 -17.76672,0 -32.786,12.27185 -38.83035,28.75643 -2.74743,7.50965 -2.93059,14.65296 -2.93059,17.40039 0,23.6279 14.4698,34.43446 22.89525,38.46403 5.12854,2.3811 10.07391,3.66324 15.56877,3.66324 5.3117,0 9.52443,-1.09898 14.28664,-2.74743 7.87596,-2.9306 12.45501,-6.777 18.3162,-12.82134 2.19794,-2.38111 3.66324,-3.84641 3.66324,-5.3117 0.18316,-1.4653 -0.91581,-2.56427 -2.38111,-2.56427 -1.46529,0 -2.74743,1.28213 -4.02956,2.01478 -9.1581,6.22751 -17.21723,7.87597 -21.79628,7.87597 -7.6928,0 -13.0045,-3.48008 -15.20245,-5.12854 -13.55398,-10.07391 -13.18766,-28.20695 -13.18766,-32.41967 0,0 -0.18316,-4.21273 2.38111,-4.94538 0.91581,-0.36632 16.11825,-0.54948 25.27635,-0.54948 5.49486,0 10.80656,0 16.11826,-0.18317 z M 772.9951,155.74855 c 3.84641,-9.34126 13.00451,-15.56877 23.26158,-15.75193 1.83162,0 7.50964,0 10.80656,5.12854 1.46529,2.19794 1.64845,4.02956 1.64845,5.12853 0,0.91581 0,2.56427 -1.09897,4.39589 -2.19794,4.21273 -7.14332,4.76221 -11.72237,5.49486 -8.42545,1.4653 -14.46979,2.01478 -17.94987,2.01478 -1.09897,0 -5.49486,0.36633 -5.49486,-3.66324 -0.18316,-1.28213 0.36632,-2.3811 0.54948,-2.74743 z"
         style="-inkscape-font-specification:'Garamont Amsterdam BQ'"
         id="path24453" />
      <path
         d="m 862.01188,131.93749 c -2.01478,-0.36632 -3.66324,2.19795 -5.49486,4.02957 -5.86118,6.2275 -11.5392,8.05912 -14.10347,9.1581 -1.83162,0.54948 -6.04435,1.46529 -6.04435,4.21272 0,0.54949 0.18317,1.4653 1.09898,2.38111 0.54948,0.54948 0.73264,0.54948 1.46529,0.91581 5.67802,2.93059 6.59383,5.86118 6.59383,11.90553 0,6.77699 -0.18316,13.0045 -0.36632,19.04885 0,3.29691 0,22.89525 -1.64846,26.37533 -1.46529,3.8464 -8.42545,5.12853 -8.42545,5.12853 -1.4653,0.36633 -2.93059,0.18316 -3.8464,1.64846 -0.18316,0.54949 -0.36633,1.09897 -0.36633,1.4653 0,0.73264 0.54949,2.74743 2.74743,2.74743 0.54949,0 1.28214,-0.18317 1.83162,-0.18317 3.48008,-0.54948 6.59384,-0.73264 9.89075,-1.09897 3.8464,-0.36632 7.87597,-0.54948 11.90553,-0.54948 3.8464,0 7.32648,0.18316 10.98972,0.54948 3.29692,0.18316 6.59383,0.73265 9.89075,0.73265 0.73265,0 2.56427,0.18316 3.66324,-1.4653 0.54949,-0.73264 0.54949,-1.09897 0.54949,-1.46529 0,-1.28214 -0.54949,-2.19795 -1.64846,-2.56427 -0.91581,-0.36632 -2.19795,-0.18316 -4.39589,-0.36632 -4.21273,-0.18317 -11.35604,-1.28214 -13.18766,-5.86119 -0.91581,-2.19794 -0.91581,-5.3117 -0.91581,-7.87596 0,-7.32648 0.36632,-13.92032 0.54948,-20.88047 0.54949,-14.10348 -0.36632,-23.07842 5.67802,-27.84063 0.36633,-0.36632 2.01479,-1.46529 3.84641,-1.46529 3.11375,0 6.2275,2.93059 8.97493,5.12853 3.48008,2.56427 5.67803,3.11376 7.87597,3.11376 6.22751,0 9.89075,-4.57905 9.89075,-10.44024 0,-7.50964 -5.49486,-12.27185 -12.45502,-12.27185 -3.8464,0 -7.50964,1.09897 -14.10347,6.41067 -1.64846,1.28213 -3.11376,2.56427 -4.76221,3.8464 -1.28214,0.91581 -1.64846,1.4653 -2.56427,1.4653 -0.73265,0 -2.01478,-0.36633 -2.01478,-2.19795 0,-1.09897 0.18316,-2.19794 0.36632,-3.11375 0.18316,-1.83162 0.36632,-3.48008 0.36632,-5.12854 0,-0.91581 0.18317,-1.64846 0.18317,-2.56427 0,-2.01478 -1.28214,-2.74743 -2.01479,-2.93059 z"
         style="-inkscape-font-specification:'Garamont Amsterdam BQ'"
         id="path24450" />
      <path
         d="m 916.04468,196.41052 c -6.59383,0.36632 -11.5392,5.67802 -11.5392,12.27185 0,6.96016 5.49486,12.45502 12.27185,12.63818 6.96016,0 12.45502,-5.49486 12.45502,-12.45502 0,-7.32648 -6.04435,-13.0045 -13.18767,-12.45501 z"
         style="-inkscape-font-specification:'Garamont Amsterdam BQ'"
         id="path24447" />
    </g>
    <g
       aria-label="Aber waren Sie schon mal in THE LÄND?"
       id="text12369"
       style="font-size:54.2979px;line-height:1.25;font-family:Tinos;-inkscape-font-specification:Tinos;letter-spacing:0px;word-spacing:0px;stroke-width:1.35745">
      <path
         d="m 118.59597,313.31937 h -4.56102 l -3.80086,-11.99984 H 96.60532 l -3.746556,11.99984 H 88.56923 l 12.48852,-38.00853 h 4.94111 z m -9.28494,-15.5292 -5.80988,-18.35269 -5.86417,18.35269 z"
         style="font-family:Gudea;-inkscape-font-specification:Gudea"
         id="path24713" />
      <path
         d="m 124.24298,275.31084 h 4.07234 v 13.57447 q 4.66962,-3.31217 8.36188,-3.31217 9.77362,0 9.77362,14.06316 0,7.98179 -3.47507,11.18536 -3.09498,2.82349 -7.27592,2.82349 -2.11761,0 -4.28953,-0.92306 -2.17192,-0.97736 -3.58366,-2.06332 l -1.19455,2.6606 h -2.38911 z m 4.07234,17.42962 v 14.76903 q 1.08596,1.24885 2.87779,1.95473 1.84613,0.70587 3.58366,0.70587 4.23524,0 5.91847,-2.49771 1.68324,-2.4977 1.68324,-7.81889 0,-5.3212 -1.68324,-8.03609 -1.68323,-2.7149 -4.28953,-2.7149 -3.90945,0 -8.09039,3.63796 z"
         style="font-family:Gudea;-inkscape-font-specification:Gudea"
         id="path24710" />
      <path
         d="m 172.73097,300.61366 h -17.32103 q 0,5.2126 2.44341,7.38451 2.4977,2.17192 6.24426,2.17192 1.90042,0 2.6606,-0.1629 0.76017,-0.21719 1.41174,-0.38008 0.70587,-0.21719 0.97736,-0.32579 1.35745,-0.38008 2.33481,-0.70587 l 0.65158,3.14928 q -5.42979,1.90042 -8.47047,1.90042 -5.59269,0 -8.95916,-3.36647 -3.36647,-3.42076 -3.36647,-10.208 0,-6.84154 3.14928,-10.64239 3.20358,-3.80085 8.03609,-3.80085 4.88681,0 7.60171,3.14928 2.71489,3.14927 2.71489,8.52477 0,1.46604 -0.1086,3.31217 z m -17.04954,-3.09498 h 13.24869 q 0,-4.01805 -1.41174,-6.18996 -1.41175,-2.17192 -4.94111,-2.17192 -3.47507,0 -5.10401,2.33481 -1.62893,2.33481 -1.79183,6.02707 z"
         style="font-family:Gudea;-inkscape-font-specification:Gudea"
         id="path24707" />
      <path
         d="m 184.51363,292.57757 v 20.7418 h -4.07234 v -27.14895 h 2.6063 l 0.65158,3.20357 q 2.6063,-2.06332 4.34383,-2.87779 1.73753,-0.86876 3.96375,-0.86876 1.08595,0 1.62893,0.10859 l 0.76017,0.21719 -0.65157,3.74656 q -0.97736,-0.32579 -2.6606,-0.32579 -3.25787,0 -6.57005,3.20358 z"
         style="font-family:Gudea;-inkscape-font-specification:Gudea"
         id="path24704" />
      <path
         d="m 217.74397,313.31937 -7.92749,-27.14895 h 4.23523 l 6.02707,22.85941 5.59268,-22.85941 h 4.01805 l 6.02707,23.0766 5.53838,-23.0766 h 4.23524 l -7.43881,27.14895 h -4.77822 l -5.59268,-21.44767 -5.2669,21.44767 z"
         style="font-family:Gudea;-inkscape-font-specification:Gudea"
         id="path24701" />
      <path
         d="m 262.75698,297.08429 h 2.22621 q 0,-4.9411 -1.24885,-6.40715 -1.24885,-1.52034 -5.53838,-1.52034 -4.28954,0 -7.27592,1.14026 l -0.76017,-3.14928 q 4.56102,-1.52034 9.44783,-1.52034 9.55643,0 9.55643,9.55643 v 18.1355 h -2.38911 l -1.41174,-3.20358 q -2.4977,2.06332 -4.34383,2.82349 -1.79183,0.70587 -4.18094,0.70587 -3.80085,0 -5.91847,-2.22621 -2.11762,-2.28051 -2.11762,-5.97277 0,-8.36188 13.95456,-8.36188 z m 2.28051,3.42077 h -2.4434 q -5.53839,0 -7.65601,1.08596 -2.06332,1.08596 -2.06332,3.42077 0,2.28051 1.19456,3.74655 1.19455,1.46605 3.09498,1.46605 1.95472,0 3.69225,-0.86877 1.79183,-0.92306 4.18094,-3.14928 z"
         style="font-family:Gudea;-inkscape-font-specification:Gudea"
         id="path24698" />
      <path
         d="m 283.11872,292.57757 v 20.7418 h -4.07234 v -27.14895 h 2.6063 l 0.65157,3.20357 q 2.6063,-2.06332 4.34384,-2.87779 1.73753,-0.86876 3.96374,-0.86876 1.08596,0 1.62894,0.10859 l 0.76017,0.21719 -0.65157,3.74656 q -0.97737,-0.32579 -2.6606,-0.32579 -3.25788,0 -6.57005,3.20358 z"
         style="font-family:Gudea;-inkscape-font-specification:Gudea"
         id="path24695" />
      <path
         d="m 318.0323,300.61366 h -17.32103 q 0,5.2126 2.4434,7.38451 2.49771,2.17192 6.24426,2.17192 1.90043,0 2.6606,-0.1629 0.76017,-0.21719 1.41174,-0.38008 0.70588,-0.21719 0.97737,-0.32579 1.35744,-0.38008 2.33481,-0.70587 l 0.65157,3.14928 q -5.42979,1.90042 -8.47047,1.90042 -5.59269,0 -8.95916,-3.36647 -3.36647,-3.42076 -3.36647,-10.208 0,-6.84154 3.14928,-10.64239 3.20358,-3.80085 8.03609,-3.80085 4.88681,0 7.60171,3.14928 2.71489,3.14927 2.71489,8.52477 0,1.46604 -0.10859,3.31217 z m -17.04954,-3.09498 h 13.24868 q 0,-4.01805 -1.41174,-6.18996 -1.41175,-2.17192 -4.94111,-2.17192 -3.47507,0 -5.104,2.33481 -1.62894,2.33481 -1.79183,6.02707 z"
         style="font-family:Gudea;-inkscape-font-specification:Gudea"
         id="path24692" />
      <path
         d="m 329.81495,291.7631 v 21.55627 h -4.07234 v -27.14895 h 2.6063 l 0.65157,2.66059 q 1.24885,-0.97736 2.00902,-1.52034 0.81447,-0.54298 2.55201,-1.08596 1.73753,-0.59727 3.69225,-0.59727 3.74656,0 6.18996,2.33481 2.49771,2.28051 2.49771,6.51574 v 18.84138 h -4.07235 v -17.64682 q 0,-6.57005 -5.48408,-6.57005 -3.90945,0 -6.57005,2.6606 z"
         style="font-family:Gudea;-inkscape-font-specification:Gudea"
         id="path24689" />
      <path
         d="m 388.51105,276.66828 -0.86877,3.63796 -3.14928,-0.92306 q -3.36647,-0.81447 -5.80987,-0.81447 -6.40716,0 -6.40716,5.70128 0,2.4977 1.95473,4.12664 1.95472,1.57464 4.72392,2.552 2.82349,0.92307 5.59268,2.06332 2.82349,1.08596 4.77822,3.42077 1.95472,2.28051 1.95472,5.80987 0,5.3755 -3.31217,8.41618 -3.31217,2.98638 -9.39354,2.98638 -3.04068,0 -6.13566,-0.86876 -3.04068,-0.92307 -4.99541,-2.11762 l 1.35745,-3.09498 q 4.94111,2.28051 9.33924,2.28051 4.45243,0 6.73294,-1.79183 2.33481,-1.79183 2.33481,-5.2126 0,-3.47506 -3.74656,-5.42979 -1.68323,-0.86877 -3.74655,-1.62894 -2.00903,-0.76017 -4.07235,-1.62893 -2.00902,-0.92307 -3.69225,-2.06332 -1.62894,-1.14026 -2.7149,-3.09498 -1.03166,-1.95473 -1.03166,-4.56103 0,-4.66962 2.7692,-7.16732 2.82349,-2.4977 7.5474,-2.4977 4.72392,0 9.99082,1.90042 z"
         style="font-family:Gudea;-inkscape-font-specification:Gudea"
         id="path24686" />
      <path
         d="m 398.55617,313.31937 v -27.14895 h 4.07234 v 27.14895 z m 4.07234,-38.00853 v 4.83251 h -4.07234 v -4.83251 z"
         style="font-family:Gudea;-inkscape-font-specification:Gudea"
         id="path24683" />
      <path
         d="m 430.53768,300.61366 h -17.32103 q 0,5.2126 2.44341,7.38451 2.4977,2.17192 6.24426,2.17192 1.90042,0 2.66059,-0.1629 0.76018,-0.21719 1.41175,-0.38008 0.70587,-0.21719 0.97736,-0.32579 1.35745,-0.38008 2.33481,-0.70587 l 0.65158,3.14928 q -5.42979,1.90042 -8.47048,1.90042 -5.59268,0 -8.95915,-3.36647 -3.36647,-3.42076 -3.36647,-10.208 0,-6.84154 3.14928,-10.64239 3.20358,-3.80085 8.03609,-3.80085 4.88681,0 7.6017,3.14928 2.7149,3.14927 2.7149,8.52477 0,1.46604 -0.1086,3.31217 z m -17.04954,-3.09498 h 13.24869 q 0,-4.01805 -1.41174,-6.18996 -1.41175,-2.17192 -4.94111,-2.17192 -3.47507,0 -5.10401,2.33481 -1.62893,2.33481 -1.79183,6.02707 z"
         style="font-family:Gudea;-inkscape-font-specification:Gudea"
         id="path24680" />
      <path
         d="m 450.79081,308.48685 q 3.52937,1.62894 6.73294,1.62894 3.20358,0 4.83251,-1.24885 1.68324,-1.30315 1.68324,-3.42077 0,-2.11762 -1.41175,-3.25787 -1.41174,-1.19456 -3.47506,-1.84613 -2.00902,-0.65158 -4.07234,-1.41175 -2.00903,-0.76017 -3.42077,-2.28051 -1.41175,-1.52034 -1.41175,-3.85515 0,-3.42077 2.22622,-5.2669 2.22621,-1.90042 6.02706,-1.90042 3.80086,0 7.05873,1.14025 l 0.38009,0.1629 -0.70588,3.47506 q -3.25787,-1.24885 -6.08136,-1.24885 -2.76919,0 -3.80085,0.86877 -1.03166,0.86876 -1.03166,2.93208 0,1.30315 1.41174,2.22622 1.41175,0.92306 3.42077,1.62893 2.06332,0.65158 4.07234,1.57464 2.06332,0.86877 3.47507,2.6606 1.41174,1.79183 1.41174,4.39813 0,3.80085 -2.66059,6.02707 -2.6606,2.17191 -7.33022,2.17191 -4.66962,0 -8.30758,-2.11761 z"
         style="font-family:Gudea;-inkscape-font-specification:Gudea"
         id="path24677" />
      <path
         d="m 491.45997,309.08413 0.81447,3.20358 q -4.34383,1.30315 -7.656,1.30315 -5.80988,0 -8.74196,-3.80086 -2.93209,-3.80085 -2.93209,-10.47949 0,-6.67864 3.04068,-10.15371 3.04069,-3.52936 8.95916,-3.52936 2.552,0 7.16732,1.30315 l -1.62894,3.14927 q -2.98638,-0.86876 -5.37549,-0.86876 -4.12664,0 -5.97277,2.4434 -1.79183,2.44341 -1.79183,7.71031 0,10.69668 7.656,10.69668 3.04069,0 6.46145,-0.97736 z"
         style="font-family:Gudea;-inkscape-font-specification:Gudea"
         id="path24674" />
      <path
         d="m 519.31482,313.31937 h -4.07234 v -17.86401 q 0,-6.57005 -5.48409,-6.57005 -4.07234,0 -6.67864,2.6063 v 21.82776 h -4.07234 v -38.00853 h 4.01804 v 12.8686 q 1.19456,-0.97736 1.84613,-1.41175 0.70587,-0.43438 2.22622,-0.86876 1.57463,-0.43439 3.52936,-0.43439 3.74655,0 6.18996,2.28052 2.4977,2.28051 2.4977,6.51574 z"
         style="font-family:Gudea;-inkscape-font-specification:Gudea"
         id="path24671" />
      <path
         d="m 545.9751,299.96208 q 0,-5.26689 -2.06332,-8.03609 -2.06332,-2.76919 -6.02707,-2.76919 -3.96375,0 -5.64698,2.6606 -1.62894,2.6063 -1.62894,8.03609 0,10.2623 7.54741,10.2623 3.96375,0 5.86417,-2.44341 1.95473,-2.4977 1.95473,-7.7103 z m 0.97736,9.99082 q -3.09498,3.69225 -8.74196,3.69225 -5.64699,0 -8.68767,-3.63796 -2.98638,-3.69225 -2.98638,-10.2623 0,-6.62434 2.87779,-10.3709 2.93208,-3.74655 8.52477,-3.74655 5.64698,0 8.85055,3.80085 3.25788,3.80085 3.25788,10.3166 0,6.51575 -3.09498,10.20801 z"
         style="font-family:Gudea;-inkscape-font-specification:Gudea"
         id="path24668" />
      <path
         d="m 561.39567,291.7631 v 21.55627 h -4.07234 v -27.14895 h 2.6063 l 0.65157,2.66059 q 1.24885,-0.97736 2.00902,-1.52034 0.81447,-0.54298 2.552,-1.08596 1.73754,-0.59727 3.69226,-0.59727 3.74656,0 6.18996,2.33481 2.49771,2.28051 2.49771,6.51574 v 18.84138 h -4.07235 v -17.64682 q 0,-6.57005 -5.48408,-6.57005 -3.90945,0 -6.57005,2.6606 z"
         style="font-family:Gudea;-inkscape-font-specification:Gudea"
         id="path24665" />
      <path
         d="m 612.43576,285.57314 q 5.2126,0 7.43881,3.69226 4.61533,-3.69226 8.52478,-3.69226 3.90944,0 6.35285,2.22621 2.4977,2.17192 2.4977,6.35286 v 19.16716 h -3.96374 v -17.48393 q 0,-3.31217 -1.52035,-4.9954 -1.46604,-1.73754 -3.96374,-1.73754 -3.42077,0 -6.89584,2.7149 0.27149,1.19455 0.27149,2.33481 v 19.16716 h -3.96374 v -17.48393 q 0,-3.31217 -1.52034,-4.9954 -1.46605,-1.73754 -3.96375,-1.73754 -1.62894,0 -2.98639,0.43439 -1.35744,0.43438 -2.00902,0.86876 -0.65157,0.43439 -1.68323,1.30315 v 21.61057 h -4.07234 v -27.14895 h 2.60629 l 0.70588,2.76919 q 1.35744,-1.14026 2.06332,-1.62894 0.76017,-0.54298 2.4434,-1.14025 1.68324,-0.59728 3.63796,-0.59728 z"
         style="font-family:Gudea;-inkscape-font-specification:Gudea"
         id="path24662" />
      <path
         d="m 658.86045,297.08429 h 2.22621 q 0,-4.9411 -1.24885,-6.40715 -1.24885,-1.52034 -5.53838,-1.52034 -4.28954,0 -7.27592,1.14026 l -0.76017,-3.14928 q 4.56102,-1.52034 9.44783,-1.52034 9.55643,0 9.55643,9.55643 v 18.1355 h -2.38911 l -1.41174,-3.20358 q -2.4977,2.06332 -4.34383,2.82349 -1.79183,0.70587 -4.18094,0.70587 -3.80085,0 -5.91847,-2.22621 -2.11762,-2.28051 -2.11762,-5.97277 0,-8.36188 13.95456,-8.36188 z m 2.28051,3.42077 h -2.4434 q -5.53839,0 -7.65601,1.08596 -2.06332,1.08596 -2.06332,3.42077 0,2.28051 1.19456,3.74655 1.19455,1.46605 3.09498,1.46605 1.95472,0 3.69225,-0.86877 1.79183,-0.92306 4.18094,-3.14928 z"
         style="font-family:Gudea;-inkscape-font-specification:Gudea"
         id="path24659" />
      <path
         d="m 675.14986,313.31937 v -38.00853 h 4.07235 v 38.00853 z"
         style="font-family:Gudea;-inkscape-font-specification:Gudea"
         id="path24656" />
      <path
         d="m 701.91875,313.31937 v -27.14895 h 4.07234 v 27.14895 z m 4.07234,-38.00853 v 4.83251 h -4.07234 v -4.83251 z"
         style="font-family:Gudea;-inkscape-font-specification:Gudea"
         id="path24653" />
      <path
         d="m 719.1312,291.7631 v 21.55627 h -4.07234 v -27.14895 h 2.6063 l 0.65158,2.66059 q 1.24885,-0.97736 2.00902,-1.52034 0.81447,-0.54298 2.552,-1.08596 1.73753,-0.59727 3.69226,-0.59727 3.74655,0 6.18996,2.33481 2.4977,2.28051 2.4977,6.51574 v 18.84138 h -4.07234 v -17.64682 q 0,-6.57005 -5.48409,-6.57005 -3.90945,0 -6.57005,2.6606 z"
         style="font-family:Gudea;-inkscape-font-specification:Gudea"
         id="path24650" />
      <path
         d="m 785.04892,282.26097 v -6.95013 h -29.97244 v 6.95013 h 10.85958 v 31.0584 h 8.30758 v -31.0584 z"
         style="font-weight:bold;font-family:'Referenz Grotesk';-inkscape-font-specification:'Referenz Grotesk Bold'"
         id="path24647" />
      <path
         d="m 812.57795,313.31937 h 8.30758 v -38.00853 h -8.30758 v 15.25771 h -13.90026 v -15.25771 h -8.30758 v 38.00853 h 8.30758 v -15.6378 h 13.90026 z"
         style="font-weight:bold;font-family:'Referenz Grotesk';-inkscape-font-specification:'Referenz Grotesk Bold'"
         id="path24644" />
      <path
         d="m 851.29236,281.77229 v -6.46145 h -22.37074 v 38.00853 h 25.62861 v -6.46145 H 837.2292 v -9.44784 h 14.06316 v -6.46145 H 837.2292 v -9.17634 z"
         style="font-weight:bold;font-family:'Referenz Grotesk';-inkscape-font-specification:'Referenz Grotesk Bold'"
         id="path24641" />
      <path
         d="m 897.11968,313.31937 v -7.11303 h -16.77805 v -30.8955 h -8.30758 v 38.00853 z"
         style="font-weight:bold;font-family:'Referenz Grotesk';-inkscape-font-specification:'Referenz Grotesk Bold'"
         id="path24638" />
      <path
         d="m 913.84349,264.93994 c -0.81446,-0.76017 -1.84612,-1.19456 -3.09498,-1.19456 -1.24885,0 -2.28051,0.43439 -3.04068,1.19456 -0.81447,0.76017 -1.19455,1.79183 -1.19455,3.04068 0,1.24885 0.38008,2.28051 1.14025,3.04068 0.76017,0.76017 1.79183,1.14026 3.09498,1.14026 1.24886,0 2.28052,-0.38009 3.09498,-1.14026 0.76017,-0.76017 1.19456,-1.79183 1.19456,-3.04068 0,-1.19455 -0.43439,-2.22621 -1.19456,-3.04068 z m 11.99984,0 c -0.81447,-0.76017 -1.84613,-1.19456 -3.09498,-1.19456 -1.24885,0 -2.28051,0.43439 -3.04068,1.19456 -0.81447,0.76017 -1.19456,1.79183 -1.19456,3.04068 0,1.24885 0.38009,2.28051 1.14026,3.04068 0.76017,0.76017 1.79183,1.14026 3.09498,1.14026 1.24885,0 2.28051,-0.38009 3.09498,-1.14026 0.76017,-0.76017 1.19455,-1.79183 1.19455,-3.04068 0,-1.19455 -0.43438,-2.22621 -1.19455,-3.04068 z m -26.28018,48.37943 h 8.36187 l 2.22622,-7.65601 h 13.24868 l 2.28052,7.65601 h 8.36187 v -0.70588 l -11.78264,-37.30265 h -10.85958 l -11.83694,37.30265 z m 12.21702,-13.95456 4.66962,-16.07218 h 0.70588 l 4.66962,16.07218 z"
         style="font-weight:bold;font-family:'Referenz Grotesk';-inkscape-font-specification:'Referenz Grotesk Bold'"
         id="path24635" />
      <path
         d="m 961.95141,313.31937 h 8.68767 v -38.00853 h -7.98179 v 24.16256 h -0.70588 l -14.06315,-24.16256 h -8.74197 v 38.00853 h 7.9818 V 289.1568 h 0.70587 z"
         style="font-weight:bold;font-family:'Referenz Grotesk';-inkscape-font-specification:'Referenz Grotesk Bold'"
         id="path24632" />
      <path
         d="m 978.67516,275.31084 v 38.00853 h 14.11746 c 3.69226,0 6.84153,-0.76017 9.44788,-2.38911 2.552,-1.62894 4.4524,-3.85515 5.7555,-6.67864 1.3032,-2.82349 1.9548,-6.13567 1.9548,-9.93652 0,-3.74655 -0.6516,-7.05873 -1.9548,-9.88222 -1.3031,-2.82349 -3.2035,-5.0497 -5.7555,-6.67864 -2.60635,-1.62894 -5.75562,-2.4434 -9.44788,-2.4434 z m 20.63321,28.50639 c -1.52034,2.06332 -4.07235,3.04069 -7.65601,3.04069 h -4.66962 v -25.08563 h 4.66962 c 3.58366,0 6.13567,1.03166 7.65601,3.09498 1.52033,2.06332 2.33483,5.21259 2.33483,9.44783 0,4.28954 -0.8145,7.43881 -2.33483,9.50213 z"
         style="font-weight:bold;font-family:'Referenz Grotesk';-inkscape-font-specification:'Referenz Grotesk Bold'"
         id="path24629" />
      <path
         d="m 1030.9098,290.18846 q -1.3031,1.30315 -2.6063,2.4977 -3.095,2.93209 -3.095,6.67865 v 3.42076 h -4.018 v -3.14927 q 0,-2.38911 0.8687,-4.34384 0.9231,-2.00902 2.172,-3.31217 1.3031,-1.30315 2.552,-2.552 3.0949,-2.93209 3.0949,-6.02707 0,-5.0497 -6.027,-5.0497 -3.5294,0 -6.5701,1.03166 l -0.5972,-3.14928 q 4.3981,-1.46604 8.3075,-1.46604 3.9638,0 6.4615,2.22621 2.4977,2.17192 2.4977,6.18996 0,3.96375 -3.0407,7.00443 z m -5.7556,23.13091 h -4.0723 v -5.3212 h 4.0723 z"
         style="font-family:Gudea;-inkscape-font-specification:Gudea"
         id="path24626" />
    </g>
  </g>
  <g
     inkscape:groupmode="layer"
     id="layer4"
     inkscape:label="BW is THE LÄND"
     sodipodi:insensitive="true"
     style="display:inline">
    <g
       id="g20056"
       transform="matrix(1.9963118,0,0,1.9963118,-560.63731,-230.7463)">
      <path
         class="cls-1"
         d="m 404.60408,433.15293 a 17,17 0 0 0 -3.26,-1.25 0.2,0.2 0 0 1 -0.17,-0.2 0.28,0.28 0 0 1 0.17,-0.25 8.09,8.09 0 0 0 1.72,-0.76 8,8 0 0 0 1.36,-1.07 5.55,5.55 0 0 0 1.27,-1.87 6.07,6.07 0 0 0 0.52,-2.54 5.49,5.49 0 0 0 -2.57,-5.11 q -2.57,-1.55 -8,-1.54 c -0.51,0 -1.61,0 -3.3,0.13 a 17.25,17.25 0 0 1 -2.15,0.14 h -2.23 c -1,-0.06 -2,-0.09 -2.9,-0.09 a 1.93,1.93 0 0 0 -0.84,0.16 0.48,0.48 0 0 0 -0.32,0.42 0.75,0.75 0 0 0 0.32,0.58 1.62,1.62 0 0 0 1,0.32 3.46,3.46 0 0 1 2.25,0.89 3.31,3.31 0 0 1 0.65,2.27 v 20.17 a 2.81,2.81 0 0 1 -0.76,2.16 5.37,5.37 0 0 1 -2.5,1 c -0.86,0.18 -1.29,0.46 -1.29,0.85 a 0.43,0.43 0 0 0 0.31,0.4 2.2,2.2 0 0 0 0.85,0.13 c 1.13,0 2.17,0 3.12,-0.13 1.19,-0.06 2.14,-0.09 2.86,-0.09 0.72,0 1.84,0 3,0.09 1,0.06 1.58,0.09 1.87,0.09 a 17.46,17.46 0 0 0 7.68,-1.48 14.75,14.75 0 0 0 2.25,-1.4 6,6 0 0 0 1.67,-2.21 8.52,8.52 0 0 0 0.72,-3.75 6.93,6.93 0 0 0 -1,-3.88 6.36,6.36 0 0 0 -2.3,-2.18 z m -11.78,-11.07 a 1.82,1.82 0 0 1 0.58,-1.49 3.57,3.57 0 0 1 2.14,-0.47 q 5.85,0 5.85,5.8 a 5.46,5.46 0 0 1 -0.58,2.72 4,4 0 0 1 -1.21,1.43 8.68,8.68 0 0 1 -4.81,1.29 2.67,2.67 0 0 1 -1.36,-0.35 1.37,1.37 0 0 1 -0.61,-1.3 z m 8.9,20.68 a 6.7,6.7 0 0 1 -2.43,2.36 6.41,6.41 0 0 1 -3.25,0.87 3.59,3.59 0 0 1 -2.41,-0.69 2.93,2.93 0 0 1 -0.81,-2.34 v -8.52 a 1.37,1.37 0 0 1 0.63,-1.07 2.71,2.71 0 0 1 1.74,-0.49 8.49,8.49 0 0 1 4.55,1.07 6.65,6.65 0 0 1 2,2 6.26,6.26 0 0 1 0.87,3.5 6.18,6.18 0 0 1 -0.89,3.28 z"
         id="path6"
         style="fill:#1a1a18" />
      <path
         class="cls-1"
         d="m 427.09408,445.28293 a 0.46,0.46 0 0 0 -0.31,0.18 2.19,2.19 0 0 1 -1.61,0.53 1.32,1.32 0 0 1 -1.12,-0.62 2.55,2.55 0 0 1 -0.4,-1.61 l 0.23,-10.03 a 4.58,4.58 0 0 0 -1.12,-3.28 3.92,3.92 0 0 0 -3,-1.27 8.6,8.6 0 0 0 -3.44,0.92 14.25,14.25 0 0 0 -3.57,2.29 4.34,4.34 0 0 0 -1.87,3.08 0.6,0.6 0 0 0 0.15,0.4 0.55,0.55 0 0 0 0.43,0.18 4.78,4.78 0 0 0 2,-0.65 c 0.85,-0.43 1.27,-0.76 1.27,-1 l -0.05,-1 a 1.58,1.58 0 0 1 0.36,-1.16 3.09,3.09 0 0 1 1.05,-0.58 3.82,3.82 0 0 1 1.27,-0.22 2.23,2.23 0 0 1 1.81,0.78 2.91,2.91 0 0 1 0.6,2 l -0.09,2.72 a 2.8,2.8 0 0 1 -0.22,1.2 2.6,2.6 0 0 1 -1.07,0.63 l -4.33,1.83 a 7.23,7.23 0 0 0 -2.59,1.65 3.44,3.44 0 0 0 -0.22,4.12 5,5 0 0 0 1.49,1.52 3.31,3.31 0 0 0 1.81,0.6 6.61,6.61 0 0 0 2.68,-0.56 10.55,10.55 0 0 0 2.76,-1.85 h 0.14 a 3.94,3.94 0 0 0 3.57,2.41 3.85,3.85 0 0 0 1.67,-0.42 6.19,6.19 0 0 0 1.63,-1.18 1.75,1.75 0 0 0 0.62,-1.12 0.46,0.46 0 0 0 -0.15,-0.33 0.51,0.51 0 0 0 -0.38,-0.16 z m -7.45,-4.28 -0.09,2.54 a 2.46,2.46 0 0 1 -0.49,1.61 3,3 0 0 1 -2.19,0.93 1.92,1.92 0 0 1 -1.4,-0.6 2.29,2.29 0 0 1 -0.61,-1.72 2.51,2.51 0 0 1 0.83,-1.83 8.64,8.64 0 0 1 2.79,-1.56 2,2 0 0 1 0.76,-0.22 c 0.26,0 0.4,0.21 0.4,0.62 z"
         id="path8"
         style="fill:#1a1a18" />
      <path
         class="cls-1"
         d="m 450.20408,445.55293 h -0.22 l -1.88,0.13 c -0.35,0 -0.61,-0.21 -0.76,-0.65 a 7.49,7.49 0 0 1 -0.22,-2.2 l 0.09,-21 c 0,-1.61 0,-2.82 0.13,-3.64 0.13,-0.82 0.14,-1.27 0.14,-1.36 a 0.32,0.32 0 0 0 -0.36,-0.36 2.42,2.42 0 0 0 -0.76,0.23 34.72,34.72 0 0 1 -5.38,1.73 0.55,0.55 0 0 0 -0.4,0.58 0.64,0.64 0 0 0 0.13,0.4 0.55,0.55 0 0 0 0.31,0.22 2.43,2.43 0 0 1 1.61,0.92 4.16,4.16 0 0 1 0.49,2.34 v 5.93 a 2.05,2.05 0 0 1 -0.09,0.69 c -0.06,0.17 -0.13,0.25 -0.22,0.25 l -0.58,-0.14 a 10.58,10.58 0 0 0 -8.41,0.89 9.69,9.69 0 0 0 -3.62,3.71 10.46,10.46 0 0 0 -1.27,5.08 9.89,9.89 0 0 0 1.07,4.49 8.93,8.93 0 0 0 3,3.41 7.53,7.53 0 0 0 4.35,1.29 6.67,6.67 0 0 0 3.48,-0.93 6.8,6.8 0 0 0 2.36,-2.24 v 0.27 a 10.84,10.84 0 0 1 -0.13,1.61 9.23,9.23 0 0 0 -0.09,1 c 0,0.06 0.08,0.16 0.22,0.31 0.14,0.15 0.26,0.22 0.32,0.22 a 2,2 0 0 0 0.76,-0.26 21.45,21.45 0 0 1 5.75,-1.56 0.62,0.62 0 0 0 0.45,-0.29 1,1 0 0 0 0.22,-0.61 0.46,0.46 0 0 0 -0.11,-0.35 0.62,0.62 0 0 0 -0.38,-0.11 z m -7.1,-1.52 a 5.61,5.61 0 0 1 -1.82,1.36 4.9,4.9 0 0 1 -2.1,0.51 5.61,5.61 0 0 1 -2.63,-0.73 6.1,6.1 0 0 1 -2.37,-2.44 9.05,9.05 0 0 1 -1,-4.49 10,10 0 0 1 0.76,-4.19 5.41,5.41 0 0 1 1.9,-2.39 4.15,4.15 0 0 1 2.29,-0.73 5,5 0 0 1 2.48,0.64 5.14,5.14 0 0 1 1.81,1.68 3.81,3.81 0 0 1 0.66,2.09 z"
         id="path10"
         style="fill:#1a1a18" />
      <path
         class="cls-1"
         d="m 466.75408,442.92293 a 0.6,0.6 0 0 0 -0.49,0.35 6.16,6.16 0 0 1 -4.46,2 6,6 0 0 1 -3.28,-1 6.57,6.57 0 0 1 -2.34,-2.61 7.76,7.76 0 0 1 -0.85,-3.62 2.36,2.36 0 0 1 0.25,-1.29 1,1 0 0 1 0.87,-0.36 h 9.23 a 1.4,1.4 0 0 0 1.05,-0.35 1.61,1.61 0 0 0 0.33,-1.12 5.4,5.4 0 0 0 -1.8,-4.15 6.54,6.54 0 0 0 -4.58,-1.65 8.19,8.19 0 0 0 -4.48,1.32 9.84,9.84 0 0 0 -4.53,8.32 11.65,11.65 0 0 0 1.05,5.06 8.35,8.35 0 0 0 2.92,3.46 7.58,7.58 0 0 0 4.29,1.25 8,8 0 0 0 3.9,-1 7.14,7.14 0 0 0 2.7,-2.48 3.55,3.55 0 0 0 0.62,-1.69 c 0,-0.28 -0.17,-0.44 -0.4,-0.44 z m -10.19,-10.31 a 5,5 0 0 1 1.58,-1.47 3.71,3.71 0 0 1 1.92,-0.58 3.66,3.66 0 0 1 2.45,0.87 2.67,2.67 0 0 1 1,2.12 c 0,0.65 -0.13,1 -0.4,1.11 a 15.93,15.93 0 0 1 -3.08,0.23 h -3.53 c -0.38,0 -0.58,-0.18 -0.58,-0.54 a 3.17,3.17 0 0 1 0.64,-1.74 z"
         id="path12"
         style="fill:#1a1a18" />
      <path
         class="cls-1"
         d="m 491.56408,447.51293 c 0,-0.33 -0.33,-0.61 -1,-0.85 a 6.63,6.63 0 0 1 -1.43,-0.58 1.14,1.14 0 0 1 -0.45,-1.07 v -9.63 a 6.78,6.78 0 0 0 -1.47,-4.49 4.64,4.64 0 0 0 -3.7,-1.76 9.33,9.33 0 0 0 -3.75,0.74 11,11 0 0 0 -3.26,2.25 c -0.06,-0.06 -0.09,-0.25 -0.09,-0.58 0,-0.33 0,-0.7 0.05,-1 0.05,-0.3 0.06,-0.59 0.09,-0.8 l 0.09,-0.89 c 0,-0.27 -0.11,-0.4 -0.32,-0.4 a 1.08,1.08 0 0 0 -0.58,0.27 17.48,17.48 0 0 1 -5.17,2.27 c -0.27,0 -0.4,0.24 -0.4,0.63 a 0.55,0.55 0 0 0 0.44,0.62 1.81,1.81 0 0 1 1.25,1 4.93,4.93 0 0 1 0.31,2 v 9.82 a 1.32,1.32 0 0 1 -0.46,1.14 4.29,4.29 0 0 1 -1.36,0.55 2.41,2.41 0 0 0 -0.79,0.32 0.56,0.56 0 0 0 -0.24,0.49 0.44,0.44 0 0 0 0.24,0.4 1.37,1.37 0 0 0 0.65,0.13 15.73,15.73 0 0 0 2.19,-0.13 c 0.77,-0.06 1.4,-0.09 1.87,-0.09 0.47,0 1.12,0 1.83,0.09 a 14.3,14.3 0 0 0 2.1,0.13 c 0.56,0 0.85,-0.18 0.85,-0.53 0,-0.35 -0.33,-0.63 -1,-0.81 a 4.05,4.05 0 0 1 -1.33,-0.53 1.27,1.27 0 0 1 -0.45,-1.12 v -10.7 a 1.27,1.27 0 0 1 0.36,-0.94 6.71,6.71 0 0 1 4.37,-1.56 3.56,3.56 0 0 1 2.63,1.09 4.07,4.07 0 0 1 1,2.88 v 9.23 a 1.17,1.17 0 0 1 -0.42,1.07 6,6 0 0 1 -1.41,0.58 c -0.65,0.24 -1,0.52 -1,0.85 a 0.38,0.38 0 0 0 0.27,0.38 1.58,1.58 0 0 0 0.58,0.11 14.05,14.05 0 0 0 2.14,-0.13 c 0.77,-0.06 1.4,-0.09 1.87,-0.09 0.47,0 1.1,0 1.88,0.09 a 14.6,14.6 0 0 0 2.14,0.13 c 0.59,-0.09 0.88,-0.25 0.88,-0.58 z"
         id="path14"
         style="fill:#1a1a18" />
      <path
         class="cls-1"
         d="m 547.91408,420.94293 a 2.49,2.49 0 0 0 -0.76,1.8 2.67,2.67 0 0 0 2.54,2.55 2.54,2.54 0 0 0 1.83,-0.78 2.39,2.39 0 0 0 0.8,-1.77 2.42,2.42 0 0 0 -0.8,-1.8 2.54,2.54 0 0 0 -1.83,-0.78 2.4,2.4 0 0 0 -1.78,0.78 z"
         id="path16"
         style="fill:#1a1a18" />
      <path
         class="cls-1"
         d="m 556.07408,420.94293 a 2.53,2.53 0 0 0 -0.76,1.8 2.67,2.67 0 0 0 2.55,2.55 2.57,2.57 0 0 0 1.83,-0.78 2.43,2.43 0 0 0 0.8,-1.77 2.46,2.46 0 0 0 -0.8,-1.8 2.57,2.57 0 0 0 -1.83,-0.78 2.42,2.42 0 0 0 -1.79,0.78 z"
         id="path18"
         style="fill:#1a1a18" />
      <path
         class="cls-1"
         d="m 557.98408,445.59293 a 8.86,8.86 0 0 1 -0.14,1.47 l -0.09,1.3 c 0,0.27 0.12,0.4 0.36,0.4 a 2.53,2.53 0 0 0 1,-0.31 c 1,-0.39 1.91,-0.72 2.79,-1 a 18.67,18.67 0 0 1 3,-0.63 0.67,0.67 0 0 0 0.67,-0.71 c 0,-0.45 -0.24,-0.67 -0.71,-0.67 l -1.79,0.09 c -0.53,0 -0.8,-0.69 -0.8,-2 v -10.34 c 0,-0.36 0,-0.88 0.11,-1.56 0.11,-0.68 0.14,-1.2 0.2,-1.56 l 0.09,-0.25 a 0.61,0.61 0 0 0 0,-0.24 0.45,0.45 0 0 0 -0.17,-0.36 0.73,0.73 0 0 0 -0.45,-0.13 1.55,1.55 0 0 0 -0.49,0.09 17.06,17.06 0 0 1 -2.52,0.51 c -0.82,0.1 -2.05,0.19 -3.68,0.24 -0.66,0 -1,0.26 -1,0.76 0,0.5 0.32,0.81 1,0.81 a 3.77,3.77 0 0 1 1.89,0.6 1.89,1.89 0 0 1 0.87,1.72 v 7.8 a 3.85,3.85 0 0 1 -1.6,3.17 3.7,3.7 0 0 1 -1.47,0.76 8.57,8.57 0 0 1 -1.92,0.18 3.28,3.28 0 0 1 -2.37,-1.19 3.94,3.94 0 0 1 -1,-2.74 v -8.65 a 21.46,21.46 0 0 1 0.31,-3.44 c 0,-0.41 -0.14,-0.62 -0.49,-0.62 a 3.74,3.74 0 0 0 -0.58,0.09 c -1,0.26 -1.91,0.46 -2.59,0.58 a 20.88,20.88 0 0 1 -2.54,0.26 0.69,0.69 0 0 0 -0.67,0.76 0.75,0.75 0 0 0 0.62,0.76 2.7,2.7 0 0 1 1.43,0.92 2.57,2.57 0 0 1 0.45,1.58 v 8.83 a 5.81,5.81 0 0 0 1.4,4.11 4.69,4.69 0 0 0 3.59,1.51 9.8,9.8 0 0 0 7.28,-3.25 z"
         id="path20"
         style="fill:#1a1a18" />
      <path
         class="cls-1"
         d="m 576.46408,448.00293 c 0.57,0 0.85,-0.18 0.85,-0.53 a 0.53,0.53 0 0 0 -0.25,-0.45 2.27,2.27 0 0 0 -0.78,-0.31 6.27,6.27 0 0 1 -1.78,-0.81 1.25,1.25 0 0 1 -0.54,-1.07 v -8.38 a 4.35,4.35 0 0 1 0.85,-3 2.84,2.84 0 0 1 2.14,-0.89 2.26,2.26 0 0 1 0.83,0.2 l 0.64,0.29 a 4.52,4.52 0 0 0 1.43,0.49 1.78,1.78 0 0 0 1.41,-0.93 3.18,3.18 0 0 0 0.64,-1.79 1.44,1.44 0 0 0 -0.62,-1.22 2.89,2.89 0 0 0 -1.79,-0.47 5,5 0 0 0 -2.74,0.93 11.16,11.16 0 0 0 -2.56,2.41 c -0.07,0 -0.09,-0.06 -0.09,-0.18 l 0.13,-3.43 c 0,-0.24 -0.11,-0.36 -0.31,-0.36 a 2,2 0 0 0 -0.81,0.36 25.1,25.1 0 0 1 -2.43,1.2 17.42,17.42 0 0 1 -2.56,0.94 0.64,0.64 0 0 0 -0.45,0.63 0.63,0.63 0 0 0 0.16,0.44 0.57,0.57 0 0 0 0.33,0.22 1.81,1.81 0 0 1 1.3,1 4.61,4.61 0 0 1 0.35,1.94 v 9.82 a 1.51,1.51 0 0 1 -0.4,1.09 2.43,2.43 0 0 1 -1.29,0.6 2.25,2.25 0 0 0 -0.78,0.32 0.55,0.55 0 0 0 -0.25,0.49 c 0,0.35 0.3,0.53 0.89,0.53 a 15.63,15.63 0 0 0 2.19,-0.13 c 0.77,-0.06 1.4,-0.09 1.87,-0.09 0.47,0 1.16,0 2.06,0.09 a 19,19 0 0 0 2.36,0.05 z"
         id="path22"
         style="fill:#1a1a18" />
      <path
         class="cls-1"
         d="m 596.67408,445.73293 c 0,-0.47 -0.12,-0.71 -0.36,-0.71 l -0.22,0.09 a 4.77,4.77 0 0 1 -1.31,0.58 7.71,7.71 0 0 1 -1.86,0.18 2.54,2.54 0 0 1 -2.14,-1 4.75,4.75 0 0 1 -0.76,-2.88 v -8.65 c 0,-0.53 0.12,-0.88 0.34,-1 a 3.12,3.12 0 0 1 1.45,-0.22 h 4.33 c 0.11,0 0.22,-0.15 0.31,-0.44 a 3.24,3.24 0 0 0 0.13,-0.94 1.58,1.58 0 0 0 -0.13,-0.63 c -0.09,-0.2 -0.18,-0.31 -0.27,-0.31 h -5.2 a 1.71,1.71 0 0 1 -0.81,-0.15 0.6,0.6 0 0 1 -0.27,-0.56 v -0.18 l 0.27,-2.19 a 0.55,0.55 0 0 0 -0.62,-0.67 0.81,0.81 0 0 0 -0.58,0.27 l -0.31,0.31 a 27.23,27.23 0 0 1 -2.28,2.1 18,18 0 0 1 -2.59,1.83 0.76,0.76 0 0 0 -0.2,0.18 0.45,0.45 0 0 0 -0.11,0.27 1.63,1.63 0 0 0 0.18,0.75 c 0.12,0.24 0.27,0.36 0.44,0.36 h 0.36 a 2.66,2.66 0 0 1 1.12,0.16 0.53,0.53 0 0 1 0.31,0.51 v 10.35 a 5.67,5.67 0 0 0 1.32,4.06 5,5 0 0 0 3.77,1.38 6.48,6.48 0 0 0 2.63,-0.56 9.52,9.52 0 0 0 2.16,-1.24 c 0.61,-0.56 0.9,-0.89 0.9,-1.05 z"
         id="path24"
         style="fill:#1a1a18" />
      <path
         class="cls-1"
         d="m 602.18408,447.11293 a 5,5 0 0 0 3.77,1.38 6.45,6.45 0 0 0 2.63,-0.56 9.38,9.38 0 0 0 2.17,-1.24 c 0.58,-0.47 0.87,-0.8 0.87,-1 0,-0.47 -0.12,-0.71 -0.36,-0.71 l -0.22,0.09 a 4.83,4.83 0 0 1 -1.32,0.58 7.62,7.62 0 0 1 -1.85,0.18 2.52,2.52 0 0 1 -2.14,-1 4.68,4.68 0 0 1 -0.76,-2.88 v -8.65 c 0,-0.53 0.11,-0.88 0.33,-1 a 3.18,3.18 0 0 1 1.45,-0.22 h 4.33 c 0.12,0 0.23,-0.15 0.31,-0.44 a 3.24,3.24 0 0 0 0.14,-0.94 1.6,1.6 0 0 0 -0.14,-0.63 c -0.08,-0.2 -0.17,-0.31 -0.26,-0.31 h -5.15 a 1.67,1.67 0 0 1 -0.8,-0.15 0.6,0.6 0 0 1 -0.27,-0.56 v -0.18 l 0.27,-2.19 a 0.56,0.56 0 0 0 -0.63,-0.67 0.82,0.82 0 0 0 -0.58,0.27 l -0.31,0.31 a 25.5,25.5 0 0 1 -2.27,2.1 18.6,18.6 0 0 1 -2.59,1.83 0.63,0.63 0 0 0 -0.2,0.18 0.39,0.39 0 0 0 -0.11,0.27 1.62,1.62 0 0 0 0.17,0.75 q 0.18,0.36 0.45,0.36 h 0.36 a 2.63,2.63 0 0 1 1.11,0.16 0.52,0.52 0 0 1 0.31,0.51 v 10.35 a 5.67,5.67 0 0 0 1.29,4.01 z"
         id="path26"
         style="fill:#1a1a18" />
      <path
         class="cls-1"
         d="m 624.89408,447.58293 a 7,7 0 0 0 2.7,-2.48 3.44,3.44 0 0 0 0.62,-1.69 c 0,-0.33 -0.13,-0.49 -0.4,-0.49 a 0.6,0.6 0 0 0 -0.49,0.35 6.14,6.14 0 0 1 -4.46,2 6,6 0 0 1 -3.28,-1 6.57,6.57 0 0 1 -2.34,-2.61 7.76,7.76 0 0 1 -0.85,-3.62 2.36,2.36 0 0 1 0.25,-1.29 1,1 0 0 1 0.87,-0.36 h 9.23 a 1.4,1.4 0 0 0 1,-0.35 1.61,1.61 0 0 0 0.34,-1.12 5.41,5.41 0 0 0 -1.81,-4.15 6.53,6.53 0 0 0 -4.57,-1.65 8.2,8.2 0 0 0 -4.49,1.32 9.84,9.84 0 0 0 -4.53,8.32 11.65,11.65 0 0 0 1,5.06 8.35,8.35 0 0 0 2.92,3.46 7.58,7.58 0 0 0 4.29,1.25 8,8 0 0 0 4,-0.95 z m -7.27,-15 a 5,5 0 0 1 1.58,-1.47 3.76,3.76 0 0 1 1.92,-0.58 3.66,3.66 0 0 1 2.45,0.87 2.67,2.67 0 0 1 1,2.12 c 0,0.65 -0.13,1 -0.4,1.11 a 15.86,15.86 0 0 1 -3.08,0.23 h -3.52 c -0.39,0 -0.58,-0.18 -0.58,-0.54 a 3.15,3.15 0 0 1 0.63,-1.71 z"
         id="path28"
         style="fill:#1a1a18" />
      <path
         class="cls-1"
         d="m 662.61408,446.66293 a 6.05,6.05 0 0 1 -1.4,-0.58 1.18,1.18 0 0 1 -0.43,-1.07 v -9.63 a 7.48,7.48 0 0 0 -1.27,-4.44 3.91,3.91 0 0 0 -3.37,-1.81 9.86,9.86 0 0 0 -7.09,3.21 h -0.13 a 4.53,4.53 0 0 0 -4.42,-3.21 9.61,9.61 0 0 0 -6.83,3 h -0.09 a 0.92,0.92 0 0 1 -0.09,-0.53 c 0,-0.36 0,-0.7 0,-1 0,-0.3 0.06,-0.59 0.09,-0.8 l 0.09,-1 c 0,-0.23 -0.11,-0.35 -0.31,-0.35 a 1.58,1.58 0 0 0 -0.45,0.18 c -1,0.59 -1.85,1.07 -2.59,1.42 a 14.27,14.27 0 0 1 -2.72,0.94 c -0.27,0 -0.4,0.24 -0.4,0.63 a 0.55,0.55 0 0 0 0.44,0.62 1.54,1.54 0 0 1 1.25,0.91 5.28,5.28 0 0 1 0.32,2 v 9.82 a 1.2,1.2 0 0 1 -0.45,1.09 6.26,6.26 0 0 1 -1.38,0.6 3.33,3.33 0 0 0 -0.78,0.34 0.51,0.51 0 0 0 -0.25,0.47 c 0,0.35 0.3,0.53 0.89,0.53 a 14,14 0 0 0 2.14,-0.13 c 0.78,-0.06 1.4,-0.09 1.88,-0.09 0.48,0 1.07,0 1.78,0.09 a 12.88,12.88 0 0 0 2,0.13 c 0.57,0 0.85,-0.18 0.85,-0.53 a 0.52,0.52 0 0 0 -0.24,-0.47 3.77,3.77 0 0 0 -0.74,-0.34 4.19,4.19 0 0 1 -1.25,-0.58 1.25,1.25 0 0 1 -0.4,-1.07 v -9.41 a 3.07,3.07 0 0 1 1,-2.68 5.42,5.42 0 0 1 3.52,-1.19 2.88,2.88 0 0 1 2.25,1.23 4.44,4.44 0 0 1 0.92,2.79 v 9.32 a 1.16,1.16 0 0 1 -0.45,1 4.11,4.11 0 0 1 -1.25,0.53 3.77,3.77 0 0 0 -0.74,0.34 0.52,0.52 0 0 0 -0.24,0.47 0.44,0.44 0 0 0 0.24,0.4 1.28,1.28 0 0 0 0.61,0.13 13.61,13.61 0 0 0 2.09,-0.13 q 1.08,-0.09 1.83,-0.09 0.75,0 1.83,0.09 a 14.39,14.39 0 0 0 2.1,0.13 c 0.56,0 0.85,-0.18 0.85,-0.53 a 0.53,0.53 0 0 0 -0.25,-0.47 3.51,3.51 0 0 0 -0.74,-0.34 4.05,4.05 0 0 1 -1.33,-0.53 1.27,1.27 0 0 1 -0.45,-1.12 v -9.37 a 3.25,3.25 0 0 1 1,-2.72 5.16,5.16 0 0 1 3.43,-1.16 2.77,2.77 0 0 1 2.23,1.21 4.41,4.41 0 0 1 0.94,2.81 v 9.32 a 1.2,1.2 0 0 1 -0.42,1 4,4 0 0 1 -1.23,0.53 2.36,2.36 0 0 0 -0.74,0.32 0.56,0.56 0 0 0 -0.24,0.49 c 0,0.35 0.28,0.53 0.84,0.53 a 13.66,13.66 0 0 0 2.1,-0.13 c 0.72,-0.06 1.32,-0.09 1.83,-0.09 0.51,0 1.12,0 1.83,0.09 a 14.2,14.2 0 0 0 2.1,0.13 c 0.56,0 0.84,-0.18 0.84,-0.53 a 0.56,0.56 0 0 0 -0.24,-0.49 2.26,2.26 0 0 0 -0.71,-0.23 z"
         id="path30"
         style="fill:#1a1a18" />
      <path
         class="cls-1"
         d="m 681.22408,430.31293 a 7.62,7.62 0 0 0 -4.11,-1.18 9,9 0 0 0 -3.14,0.65 11.54,11.54 0 0 0 -3.1,1.72 c -0.27,0 -0.4,-0.46 -0.4,-1.39 v -9.28 c 0,-1 0,-1.86 0.07,-2.65 0.07,-0.79 0.06,-1.24 0.06,-1.36 0,-0.27 -0.11,-0.4 -0.35,-0.4 a 1,1 0 0 0 -0.45,0.13 41.93,41.93 0 0 1 -5.4,1.88 c -0.35,0.06 -0.53,0.23 -0.53,0.53 0,0.3 0.19,0.55 0.58,0.67 a 2.47,2.47 0 0 1 1.42,1.18 4.13,4.13 0 0 1 0.5,2.08 l 0.08,21 a 10.72,10.72 0 0 1 -0.11,1.54 c -0.07,0.55 -0.12,0.91 -0.15,1.09 a 5.72,5.72 0 0 0 -0.14,1 0.51,0.51 0 0 0 0.23,0.4 0.74,0.74 0 0 0 0.49,0.18 1.14,1.14 0 0 0 0.49,-0.27 2,2 0 0 1 1.2,-0.58 7,7 0 0 1 1.47,0.36 l 1,0.27 a 16.93,16.93 0 0 0 4.06,0.62 10.66,10.66 0 0 0 5.31,-1.31 9.33,9.33 0 0 0 3.61,-3.68 11.2,11.2 0 0 0 1.29,-5.45 9.46,9.46 0 0 0 -1.07,-4.52 8.24,8.24 0 0 0 -2.91,-3.23 z m -1.7,14.42 a 4,4 0 0 1 -3.54,2.2 5.64,5.64 0 0 1 -3.83,-1.43 4.61,4.61 0 0 1 -1.65,-3.65 v -9 a 6.64,6.64 0 0 1 2.14,-1.21 8,8 0 0 1 2.67,-0.44 4.27,4.27 0 0 1 3.08,1.2 7.56,7.56 0 0 1 1.88,3 11.42,11.42 0 0 1 0.62,3.68 10.72,10.72 0 0 1 -1.37,5.65 z"
         id="path32"
         style="fill:#1a1a18" />
      <path
         class="cls-1"
         d="m 702.90408,442.92293 a 0.6,0.6 0 0 0 -0.49,0.35 6.16,6.16 0 0 1 -4.46,2 6,6 0 0 1 -3.28,-1 6.57,6.57 0 0 1 -2.34,-2.61 7.76,7.76 0 0 1 -0.85,-3.62 2.36,2.36 0 0 1 0.25,-1.29 1,1 0 0 1 0.87,-0.36 h 9.23 a 1.4,1.4 0 0 0 1,-0.35 1.61,1.61 0 0 0 0.33,-1.12 5.4,5.4 0 0 0 -1.8,-4.15 6.54,6.54 0 0 0 -4.58,-1.65 8.19,8.19 0 0 0 -4.48,1.32 9.84,9.84 0 0 0 -4.53,8.32 11.65,11.65 0 0 0 1,5.06 8.35,8.35 0 0 0 2.92,3.46 7.58,7.58 0 0 0 4.29,1.25 8,8 0 0 0 3.9,-1 7.14,7.14 0 0 0 2.7,-2.48 3.55,3.55 0 0 0 0.62,-1.69 c 0.1,-0.28 -0.03,-0.44 -0.3,-0.44 z m -10.19,-10.31 a 5,5 0 0 1 1.58,-1.47 3.71,3.71 0 0 1 1.92,-0.58 3.66,3.66 0 0 1 2.45,0.87 2.67,2.67 0 0 1 1,2.12 c 0,0.65 -0.13,1 -0.4,1.11 a 15.93,15.93 0 0 1 -3.08,0.23 h -3.5 c -0.38,0 -0.58,-0.18 -0.58,-0.54 a 3.17,3.17 0 0 1 0.61,-1.74 z"
         id="path34"
         style="fill:#1a1a18" />
      <path
         class="cls-1"
         d="m 719.36408,429.56293 a 2.86,2.86 0 0 0 -1.78,-0.47 5,5 0 0 0 -2.74,0.93 11.2,11.2 0 0 0 -2.57,2.41 q -0.09,0 -0.09,-0.18 l 0.14,-3.43 c 0,-0.24 -0.11,-0.36 -0.32,-0.36 a 2,2 0 0 0 -0.8,0.36 25.1,25.1 0 0 1 -2.43,1.2 17.51,17.51 0 0 1 -2.57,0.94 0.64,0.64 0 0 0 -0.44,0.63 0.67,0.67 0 0 0 0.15,0.44 0.62,0.62 0 0 0 0.34,0.22 1.82,1.82 0 0 1 1.29,1 4.45,4.45 0 0 1 0.36,1.94 v 9.82 a 1.56,1.56 0 0 1 -0.4,1.09 2.43,2.43 0 0 1 -1.3,0.6 2.44,2.44 0 0 0 -0.78,0.32 0.56,0.56 0 0 0 -0.24,0.49 c 0,0.35 0.29,0.53 0.89,0.53 a 15.73,15.73 0 0 0 2.19,-0.13 c 0.77,-0.06 1.39,-0.09 1.87,-0.09 0.48,0 1.16,0 2.05,0.09 a 19.13,19.13 0 0 0 2.37,0.13 c 0.56,0 0.84,-0.18 0.84,-0.53 a 0.54,0.54 0 0 0 -0.24,-0.45 2.46,2.46 0 0 0 -0.78,-0.31 6.36,6.36 0 0 1 -1.79,-0.81 1.27,1.27 0 0 1 -0.53,-1.07 v -8.38 a 4.35,4.35 0 0 1 0.85,-3 2.82,2.82 0 0 1 2.14,-0.89 2.21,2.21 0 0 1 0.82,0.2 l 0.65,0.29 a 4.44,4.44 0 0 0 1.43,0.49 1.78,1.78 0 0 0 1.4,-0.93 3.2,3.2 0 0 0 0.65,-1.79 1.45,1.45 0 0 0 -0.63,-1.3 z"
         id="path36"
         style="fill:#1a1a18" />
      <path
         class="cls-1"
         d="m 740.25408,430.43293 a 0.56,0.56 0 0 0 -0.45,-0.23 h -1 q -1,0.09 -1.47,0.09 a 12.4,12.4 0 0 1 -3.22,-0.41 13,13 0 0 1 -1.34,-0.35 12.62,12.62 0 0 0 -3.21,-0.54 9,9 0 0 0 -4,0.94 7.81,7.81 0 0 0 -3,2.59 6.43,6.43 0 0 0 -1.14,3.74 6,6 0 0 0 1,3.33 8.27,8.27 0 0 0 2.61,2.52 5.06,5.06 0 0 1 -0.9,0.85 l -1.56,1.2 a 2.13,2.13 0 0 0 -1.07,1.69 2.93,2.93 0 0 0 0.85,2.19 6.06,6.06 0 0 0 2.77,1.34 l -3.35,2.59 a 4.3,4.3 0 0 0 -1.21,1.49 5.07,5.07 0 0 0 -0.35,2 4.33,4.33 0 0 0 2.3,3.86 11.93,11.93 0 0 0 6.26,1.4 9.73,9.73 0 0 0 5,-1.45 12.34,12.34 0 0 0 4,-3.72 8.08,8.08 0 0 0 1.56,-4.6 3.47,3.47 0 0 0 -2.05,-3.16 16.07,16.07 0 0 0 -6.43,-1.39 19,19 0 0 1 -4.55,-0.71 c -0.95,-0.33 -1.43,-0.77 -1.43,-1.34 a 1.29,1.29 0 0 1 0.43,-0.82 3.78,3.78 0 0 1 1.09,-0.83 7.41,7.41 0 0 0 2.59,0.49 6.72,6.72 0 0 0 3.81,-1.16 8.33,8.33 0 0 0 2.81,-3.1 8.7,8.7 0 0 0 1,-4.21 5.16,5.16 0 0 1 0.27,-2 q 0.23,-0.36 1.38,-0.36 h 1.21 c 0.12,0 0.26,-0.09 0.44,-0.27 a 1.59,1.59 0 0 0 0.36,-0.56 1.53,1.53 0 0 0 0.13,-0.55 0.93,0.93 0 0 0 -0.14,-0.55 z m -13.27,19.36 2.32,0.26 a 15.56,15.56 0 0 1 5,0.94 2.16,2.16 0 0 1 1.43,2 6.28,6.28 0 0 1 -0.56,2.61 5.45,5.45 0 0 1 -1.58,2 6.65,6.65 0 0 1 -4.29,1.2 6.19,6.19 0 0 1 -3.88,-1.2 3.71,3.71 0 0 1 -1.56,-3 4.57,4.57 0 0 1 0.74,-2.58 8.23,8.23 0 0 1 2.38,-2.23 z m 4.95,-9.86 a 3,3 0 0 1 -2.59,1.65 3.32,3.32 0 0 1 -2.76,-1.7 7,7 0 0 1 -1.16,-4.1 6.2,6.2 0 0 1 1.09,-3.66 3.13,3.13 0 0 1 2.57,-1.56 3.39,3.39 0 0 1 2.72,1.52 5.78,5.78 0 0 1 1.18,3.65 7.88,7.88 0 0 1 -1.08,4.2 z"
         id="path38"
         style="fill:#1a1a18" />
      <path
         class="cls-1"
         d="m 496.31408,435.21293 c -0.6,0 -0.79,0.14 -1,0.6 l -0.42,1.39 a 10.44,10.44 0 0 0 -0.37,1.57 c 0,0.24 0.09,0.28 0.42,0.28 h 0.65 c 1,0 3.89,-0.09 5.42,-0.09 0.56,0 1.39,0 2.13,0 h 0.19 c 0.65,0 0.88,-0.28 1.3,-1.86 a 9.58,9.58 0 0 1 0.37,-1.16 1.92,1.92 0 0 0 0.09,-0.41 c 0,-0.33 -0.14,-0.47 -0.51,-0.47 l -0.46,0.05 c -0.61,0 -1.21,0.09 -1.49,0.09 h -3.52 c -1.48,0 -1.9,0 -2.18,0 z"
         id="path40"
         style="fill:#1a1a18" />
      <path
         class="cls-1"
         d="m 531.50408,447.08293 c 0,-0.18 0.23,-0.55 0.41,-1.06 a 11.81,11.81 0 0 0 0.56,-1.34 l 0.69,-1.67 3.57,-8.07 3,-6.72 0.6,-1.25 c 0.14,-0.27 0.37,-0.83 0.74,-1.62 0.28,-0.56 0.42,-0.88 0.47,-1 l 1,-2.08 c 1.06,-2.18 1.2,-2.27 3.19,-2.23 0.61,0 0.79,-0.18 0.79,-0.74 0,-0.32 -0.14,-0.46 -0.46,-0.46 h -0.28 c -0.28,0 -0.88,0 -1.71,0 l -2.46,0.05 h -1.63 l -1.44,-0.05 c -0.37,0 -0.6,0.19 -0.6,0.51 0,0.32 0.23,0.56 1.53,0.74 0.65,0.14 1.06,0.51 1,1 a 4.41,4.41 0 0 1 -0.36,1.51 l -8,17.47 a 0.44,0.44 0 0 1 -0.8,0 l -3.71,-7.34 a 2.26,2.26 0 0 1 -0.32,-1 3,3 0 0 1 0.28,-1 l 0.55,-1.2 c 0.14,-0.33 0.51,-1.11 1.3,-2.69 0.56,-1.11 0.88,-1.81 1.34,-2.64 1,-2 1.39,-2.69 2,-3.24 a 3.83,3.83 0 0 1 2.41,-1.12 h 0.46 c 0.42,0 0.65,-0.18 0.65,-0.46 0,-0.28 -0.18,-0.51 -0.56,-0.51 a 4.23,4.23 0 0 0 -0.69,0 c -0.42,0 -1.39,0 -2,0 h -0.51 -1 -1.13 -0.92 -1.12 c -0.88,0 -1.06,0.09 -1.06,0.46 0,0.37 0.32,0.56 1.9,0.74 0.53,0.09 0.8,0.33 0.85,0.8 a 2.64,2.64 0 0 1 -0.13,0.92 9.63,9.63 0 0 1 -0.47,1.18 l -3.45,6.41 a 2.9,2.9 0 0 1 -0.29,-0.46 l -0.65,-1.25 c -0.09,-0.14 -0.42,-0.84 -0.88,-1.81 -0.19,-0.37 -0.56,-1.16 -1.12,-2.27 -1,-2.09 -1.11,-2.27 -1.11,-2.55 0,-0.7 0.75,-1.06 2.13,-1.06 h 0.51 a 0.39,0.39 0 0 0 0.42,-0.42 v -0.1 c 0,-0.46 -0.19,-0.55 -0.83,-0.55 -0.28,0 -1.35,0 -2.09,0 -0.74,0 -1,0 -1.25,0 h -1.58 -2.5 -1 a 9.35,9.35 0 0 0 -1,0 4,4 0 0 0 -0.7,-0.05 0.54,0.54 0 0 0 -0.6,0.47 c -0.05,0.46 0.09,0.51 1,0.6 1.3,0.09 1.67,0.37 2.37,1.67 l 0.92,1.62 c 0.33,0.6 0.37,0.74 1.12,2.27 0.55,1.11 1.11,2.22 1.62,3.38 0.42,0.84 0.88,1.81 1.44,2.92 0.13,0.33 0.27,0.61 0.32,0.74 a 5.61,5.61 0 0 1 0.32,0.65 8.83,8.83 0 0 1 0.61,1.42 l -3.55,6.5 a 0.41,0.41 0 0 1 -0.73,0 l -4.14,-8 v 0 l -3.08,-6.48 c -0.23,-0.51 -0.51,-1.06 -0.74,-1.57 -0.79,-1.58 -1,-2.09 -1.16,-2.41 a 4.33,4.33 0 0 1 -0.55,-1.58 c -0.05,-0.51 0.46,-0.88 1.43,-1 0.97,-0.12 1.16,-0.18 1.16,-0.6 0,-0.42 -0.28,-0.51 -0.83,-0.51 -0.55,0 -1,0 -2.09,0 h -2.73 -1.07 -1.11 l -2.83,-0.18 h -0.16 c -0.51,0.09 -0.65,0.23 -0.65,0.74 0,0.51 0,0.51 1.07,0.51 1.39,0 1.94,0.55 3.15,3.1 l 4.4,9.27 7.37,15.11 c 0.32,0.6 0.65,0.92 1,0.92 0.35,0 0.37,-0.09 0.84,-1 l 4.59,-8.48 c 0.88,-1.67 1.15,-2.09 1.39,-2.09 0.24,0 0.51,0.38 1.39,2.23 0.23,0.46 0.46,1 0.74,1.48 l 0.55,1.07 0.79,1.58 c 0.6,1.24 1.07,2.13 1.3,2.64 a 14.14,14.14 0 0 0 0.69,1.3 l 0.28,0.55 c 0.19,0.46 0.38,0.69 0.65,0.65 0.27,-0.04 0.64,-0.34 0.97,-1.27 z"
         id="path42"
         style="fill:#1a1a18" />
      <path
         class="cls-2"
         d="m 628.55408,391.54293 a 2.21,2.21 0 0 0 -2.05,-2.47 38.65,38.65 0 0 0 0.08,-3.89 c -0.09,-1.18 -0.47,-7.24 -0.47,-7.24 0,0 -4.84,-1.92 -5.74,-2.87 a 17.52,17.52 0 0 0 2.71,-3.14 c 0,0 2.78,-3.71 -0.9,-8.57 a 12.75,12.75 0 0 0 -6.72,-4.05 c 0,0 -1.88,-2.49 -6.93,-4 a 12.64,12.64 0 0 1 -4.46,-3.4 c 0,0 2.25,-0.89 2.54,-2 a 3.69,3.69 0 0 0 0.23,-1.83 c 0,0 2.48,-1.66 2,-4 a 3.71,3.71 0 0 0 1.67,-3.58 c 0,0 2.57,-1.5 2.64,-3.81 0,0 2.25,-1 2.47,-2.74 a 7.68,7.68 0 0 0 4.21,-3.16 16.31,16.31 0 0 0 8.89,-3.74 14.36,14.36 0 0 0 2.37,-3 8.89,8.89 0 0 1 -4.43,1.68 15.93,15.93 0 0 0 1.93,-3 20.17,20.17 0 0 1 -3.82,1.29 72.84,72.84 0 0 1 -10,1.37 26.6,26.6 0 0 0 -5.39,0.4 c -1.68,0.41 -3.06,3.2 -3.06,3.2 a 3.77,3.77 0 0 1 -1.1,0 c 0,0 -0.21,0.07 0.09,-0.42 0.3,-0.49 0.33,-0.58 0.33,-0.58 a 14.65,14.65 0 0 1 -2.35,0.13 2.54,2.54 0 0 0 -1.31,0.36 c 0,0 -1.08,-0.47 -2.28,-0.91 a 4.93,4.93 0 0 0 -2.95,-0.27 3.3,3.3 0 0 0 -1,0.3 c 0,0 -2.77,-0.64 -4.31,0.13 -1.54,0.77 -1.8,3.14 -1.8,3.14 a 4,4 0 0 1 3.13,0.29 6.62,6.62 0 0 1 1.81,1.81 c -1.44,-0.79 -3.92,-0.08 -4.17,0.51 0,0 -0.16,0 0.2,0.1 0.36,0.1 1.56,0.55 2.47,0.86 a 7.94,7.94 0 0 1 2.61,1.29 c 0.08,0.17 0.23,0.56 -0.58,1 a 28.33,28.33 0 0 0 -3.09,2.3 c -0.61,0.53 -0.4,0.44 -1.53,1.61 0,0 -0.62,-1.12 -1.09,-2.18 -0.47,-1.06 -1.55,-3.4 -1.55,-3.4 a 1.45,1.45 0 0 0 -0.12,-1.34 2.92,2.92 0 0 0 0.55,-2.32 2.88,2.88 0 0 0 -2.46,-1.54 l 0.25,-5.76 -0.68,-0.16 h -0.23 a 138.17,138.17 0 0 0 -15.66,-2.69 v -1.21 h -0.31 a 123.11,123.11 0 0 0 -15.49,0 h -0.51 c 0,0 0.1,1 0.1,1.34 a 101.12,101.12 0 0 0 -14.48,2.9 l -0.53,0.16 h -0.14 l 0.29,5.9 a 16.68,16.68 0 0 1 -1,2.69 20.59,20.59 0 0 1 -3.67,4.7 4.22,4.22 0 0 0 0,0.54 v 2.1 c 0,0 -1.55,-1.6 -2,-2.14 a 11,11 0 0 0 -1.5,-1.5 c 0,0 -2.12,-1 -2.55,-1.18 -0.43,-0.18 -0.68,-0.2 -0.7,-0.37 a 0.94,0.94 0 0 1 0.29,-0.53 10.85,10.85 0 0 1 2.68,-2.07 2.6,2.6 0 0 1 1.4,0 1.44,1.44 0 0 0 1.58,-0.27 c 0.45,-0.41 0.48,-1 0.06,-1.06 -0.42,-0.06 -1.06,-0.1 -1.26,-0.33 -0.2,-0.23 0,-0.35 0.38,-0.65 a 5.22,5.22 0 0 0 1,-0.76 1.22,1.22 0 0 0 0.3,-1.54 1.1,1.1 0 0 0 -0.82,-0.49 c -0.47,0 -2.16,0.21 -3,0.21 0,0 -2,-0.06 -2.91,-0.16 -0.91,-0.1 -1.79,-0.06 -2.61,-0.18 a 6.59,6.59 0 0 0 -2.38,0.16 10.26,10.26 0 0 0 0.95,-2.46 12.39,12.39 0 0 0 -0.24,-3.32 c 0,0 -0.45,-1 -0.51,0 a 7.32,7.32 0 0 1 -1.83,4.41 c 0,0 0.49,-3.28 0,-4.68 -0.49,-1.4 -0.54,-0.33 -0.54,-0.33 a 15.26,15.26 0 0 1 -0.71,3.45 24.63,24.63 0 0 1 -1.12,2.3 2.91,2.91 0 0 1 -1.06,0 c -0.86,0 -0.85,-0.76 -1.06,-1.39 0,0 -0.67,-2.8 -1.61,-3.68 -0.62,-0.58 -0.37,0.22 -0.37,0.22 a 17.34,17.34 0 0 1 0.36,3.53 c 0,0.42 0,0.74 -0.36,0.89 a 1.47,1.47 0 0 1 -0.52,0.06 c 0,0 -0.66,-2.78 -1.75,-3.78 0,0 -0.17,0.08 -0.07,0.37 a 12.43,12.43 0 0 1 0.29,3.45 c 0,0.24 -0.26,0.24 -0.53,0.24 a 12.36,12.36 0 0 1 -2.18,0 c 0,0 -1,-1.67 -1.43,-2.15 a 17.85,17.85 0 0 0 -1.64,-1.61 c 0,0 -0.33,-0.06 -0.18,0.33 a 22.13,22.13 0 0 1 0.87,2.65 c 0,0.38 -0.05,0.49 -0.13,0.56 a 4.36,4.36 0 0 1 -1.26,0 21.83,21.83 0 0 0 -1.76,-2.74 c 0,0 -0.2,0 -0.09,0.31 0.11,0.31 0.44,2.35 0.44,2.35 a 7.16,7.16 0 0 1 -2,-0.28 12.31,12.31 0 0 0 -2.1,-3.31 c 0,0 -0.85,-0.7 -1,-0.55 -0.15,0.15 0.31,0.81 0.4,1.12 a 7.94,7.94 0 0 1 0.39,2.4 l -0.91,-0.09 a 7.93,7.93 0 0 0 -2.48,-2.87 c -0.12,0 -0.2,0.1 -0.11,0.26 a 18.2,18.2 0 0 1 0.79,1.7 3.57,3.57 0 0 1 0.24,0.88 14.72,14.72 0 0 1 -2.51,-0.7 c 0,0 -0.53,-0.23 -0.41,0 a 2.78,2.78 0 0 0 1.07,1.11 c 0.55,0.25 2,0.77 2,0.8 0,0.25 0.26,1.25 0,1.22 a 10,10 0 0 1 -3.07,-1.22 c 0,0 -0.91,-0.57 -1.21,-0.72 0,0 -0.61,-0.34 -0.24,0.45 a 9.48,9.48 0 0 0 5.08,4 28.45,28.45 0 0 0 9.44,1.46 32.36,32.36 0 0 0 8.65,-0.86 c 0,0 2.7,-0.73 2.55,-0.47 a 21.65,21.65 0 0 0 -2.07,1.8 12.33,12.33 0 0 0 -1.38,2.75 2.15,2.15 0 0 0 -0.14,0.43 c 0,0.1 0.12,0.2 0.46,0.13 a 8.23,8.23 0 0 0 2.46,-0.64 24.81,24.81 0 0 0 1.49,3.68 23,23 0 0 1 1.74,4.66 c 0,0 0.73,2.29 0.5,3 a 8.71,8.71 0 0 1 -1.44,2.72 18,18 0 0 1 -3.52,4.38 12.94,12.94 0 0 1 -4.51,2.8 c -1.94,0.77 -3.17,1.2 -4.15,2.13 l -0.82,1.07 a 21.13,21.13 0 0 1 -3.42,3.67 4.06,4.06 0 0 0 -3.08,2 7.76,7.76 0 0 0 -0.36,2.67 4.37,4.37 0 0 1 3,-1.57 c -0.62,2.69 1.9,3.95 2.42,4.34 a 5.33,5.33 0 0 1 -1.37,2.89 c -2,2.49 -6.31,2.59 -6.68,3.56 v 9.72 a 3,3 0 0 0 1,2.73 7.45,7.45 0 0 1 1.6,1.47 2.45,2.45 0 0 1 0.16,0.33 h -9 v 5.19 h 141.09 v -5.18 h -3.68 z m -2.58,0 a 0.82,0.82 0 0 1 0.85,-0.4 1.08,1.08 0 0 1 0.8,0.4 z m -6.46,0 v 0 a 1.24,1.24 0 0 1 0.43,-0.7 c 0.18,-0.13 2.13,-0.4 2.36,0.71 z m -1.51,0 c 0.14,-0.48 0.47,-1.18 1.29,-1 a 1.64,1.64 0 0 0 -0.39,1 z m -1.55,0 h -0.79 a 6,6 0 0 0 2.71,-3.53 c 0.49,-1.6 0.57,-3.2 1.49,-4.27 -1,0 -2,-0.4 -3.09,1.27 a 1.75,1.75 0 0 0 -1.52,2.11 c 0.16,1.31 0.32,2.14 -1.42,2.66 -1.73,0.23 -3.61,-0.73 -3.64,-4.25 0.12,-1.3 3,-3.34 3,-3.34 a 6.21,6.21 0 0 1 -0.5,-1.75 l 3.42,-2.38 a 12.29,12.29 0 0 1 6.5,5.67 12.6,12.6 0 0 1 0.53,5 5.39,5.39 0 0 0 -2.11,-0.08 c -1.75,-0.53 -3.49,0.29 -3.6,2.86 z m -8.42,0 h -1.56 c 0,-0.88 -0.52,-2.15 -1.58,-2.26 0.8,-0.6 3,-2.84 3,-2.84 a 5.73,5.73 0 0 0 3,5.1 z m -5,0 a 1.48,1.48 0 0 1 2.06,-0.4 0.92,0.92 0 0 1 0.32,0.4 z m -6,0 a 1.39,1.39 0 0 1 1.19,-1.22 c 0.65,-0.06 1.51,0 1.57,1 v 0.24 z m -71.15,0 h -22.14 a 5,5 0 0 0 -1.86,-2.33 c -0.87,-0.73 -2.46,-2 -1.63,-6.68 0.44,-1.71 0.8,-2 3.49,-3.12 a 27.38,27.38 0 0 0 7.39,-3.9 c 0,0 0.05,0.77 0.1,1.65 0.05,0.88 0.21,1 -0.52,3 -0.44,1.32 -0.77,2.5 -0.47,2.89 0.3,0.39 0.7,0.5 3.88,1.39 2.79,0.83 8.19,2.4 9.12,2.64 a 6.16,6.16 0 0 0 1.52,1.65 1.4,1.4 0 0 1 0.76,1.18 l 1.46,1.63 z m 93.66,-1.81 -0.25,-0.5 a 2.32,2.32 0 0 1 1.1,-0.2 1.3,1.3 0 0 1 -0.85,0.7 z m -89.46,1.79 a 12.89,12.89 0 0 1 -1.52,-2.2 12.57,12.57 0 0 0 -2.88,-4.43 42.85,42.85 0 0 0 -5.3,-1.6 c -2,-0.54 -5.14,-2.09 -5.16,-2.7 a 6.49,6.49 0 0 1 0.13,-1.57 117.36,117.36 0 0 0 3.7,-12.81 26.91,26.91 0 0 0 12,-7 52.77,52.77 0 0 1 5.37,2.52 6.3,6.3 0 0 1 1.92,2.78 c 0.6,1.6 0.26,5.1 0.26,5.63 0,0.83 0.65,1.2 0.55,1.78 0.08,1 0,1.83 2.78,3.31 v 0 c 3.75,11.75 12,15.14 16.82,16.1 -7.77,0 -18.33,0.09 -28.67,0.19 z m 10.7,-27.23 -1.23,-25 v 0 a 72.11,72.11 0 0 1 22,-3.44 c 14.49,0 23,3.41 23.05,3.45 l 0.1,0.05 -1.13,26.83 c -0.88,20.34 -15.72,24.79 -21.37,24.79 -2.03,0.02 -20.02,-0.72 -21.42,-26.68 z m -1.3,-25.81 v -0.09 -0.74 l 0.14,-0.07 a 71.75,71.75 0 0 1 22,-3.44 c 14.49,0 23,3.41 23.05,3.45 l 0.19,0.09 v 0.71 0.11 c -1.2,-0.45 -9.59,-3.45 -23.21,-3.45 a 73.51,73.51 0 0 0 -22.17,3.43 z m 46.4,28.47 0.64,0.22 0.24,0.1 v 0.18 a 1.77,1.77 0 0 1 -1.28,1.84 2.11,2.11 0 0 0 0.4,-2.34 z m 1.1,3.57 -0.35,-0.53 a 5,5 0 0 0 0,-0.67 1,1 0 0 1 0.54,1 z m 0,0.61 a 1.87,1.87 0 0 1 -1.61,1.37 2.83,2.83 0 0 0 1.16,-1.77 l 0.41,0.25 z m -1.08,-1.4 c 0.16,2.45 -1.42,2.59 -2.37,2.61 0.18,-0.86 0.34,-1.75 0.46,-2.68 a 2.79,2.79 0 0 0 1.91,0.07 z m -1.59,-0.49 h -0.27 c 0.09,-0.83 0.17,-1.69 0.22,-2.59 a 1.31,1.31 0 0 1 0.05,2.58 z m 0.21,-8.6 c 0.2,0 0.6,0.23 0.92,0.91 a 1.94,1.94 0 0 1 -0.16,1.66 2.05,2.05 0 0 1 -0.9,0.67 z m 10,30.89 h -1 c 0.11,-0.49 0.25,-1 1,-1 0,0.28 0.01,0.59 0,0.99 z m 1.91,0 h -1.29 c 0.11,-0.58 0.13,-1.48 1.37,-1.44 a 13.24,13.24 0 0 0 -0.08,1.45 z m 0.79,-2.38 c 0.08,-0.23 -0.18,-0.73 -0.18,-0.73 a 1,1 0 0 1 1.23,0.26 c -0.4,-0.09 -1.05,0.48 -1.05,0.48 z m -1.08,-0.94 c -1.13,-0.13 -3.08,0.25 -3.22,2.2 0,0.32 -0.06,0.77 -0.09,1.08 -9.93,-0.1 -19.89,-0.18 -27.25,-0.2 6,-1.25 15,-5.91 17.85,-18.48 0.31,0.11 2.2,0.73 3.2,-0.15 a 3,3 0 0 0 1.27,-2.64 6.63,6.63 0 0 0 -0.48,-1.77 2.14,2.14 0 0 1 0.47,-1.14 c 0,0 1.09,-1.38 1.47,-1.84 a 36.16,36.16 0 0 1 3.15,-3.21 c 1.06,-0.81 2.11,-1.58 2.11,-1.58 a 2.38,2.38 0 0 1 1.43,0.59 12.17,12.17 0 0 0 2.07,1.39 9,9 0 0 0 3.24,0.66 6.86,6.86 0 0 1 2.76,0.86 6.24,6.24 0 0 1 1.43,1.18 29.2,29.2 0 0 0 0.25,6.89 14,14 0 0 0 0.94,2.87 c 0.79,1.54 0.65,5.13 0.39,6.74 a 3.9,3.9 0 0 1 -0.84,1.71 l -6.44,4.73 a 5.23,5.23 0 0 0 -3.71,0.12 z m 20,0.31 c 0.1,-1 -0.81,-2.37 0.48,-2.84 0.1,0.38 -0.09,1.11 0.47,1.59 0,-1.28 -0.31,-2.41 1.63,-2.92 -0.78,2.16 -0.46,7.33 -6.27,7 -2,-0.13 -4.16,-2.71 -3.81,-5.32 0,0 0.8,-0.83 0.8,-0.83 -0.36,5.86 5.39,6.75 6.71,3.33 z m -3.85,-12 c 0.1,-0.86 0.26,-1.67 0.53,-1.28 l 1.45,1.2 c 0,0 -1.78,1.38 -1.94,1.44 a 4.82,4.82 0 0 1 -0.03,-1.31 z m 5.44,-13.17 c 3.42,1.73 5.15,5.62 1.14,9.71 a 20.37,20.37 0 0 1 -1.65,-4 c 0,0 0.88,-2.57 1,-3.22 a 9.72,9.72 0 0 0 -0.48,-2.44 z m 0.43,10.38 c -0.38,0.48 -2.85,2 -3,2.19 a 7.25,7.25 0 0 1 -2.06,-2 10.94,10.94 0 0 1 1,-1.3 c 0.17,-0.21 0.85,-1 1.24,-1.4 0.39,-0.4 0.82,-0.67 1.16,-1 a 22,22 0 0 1 1.67,3.56 z m 6.92,4.71 c 0.79,3.19 0.71,7.11 0.54,11.43 a 1,1 0 0 1 0.74,-0.17 l -0.07,0.11 c -0.07,0.13 0,0.35 -0.09,0.53 a 1.5,1.5 0 0 1 -0.27,0.3 1.2,1.2 0 0 0 -0.71,0.53 h -2.12 a 1.8,1.8 0 0 0 -1.19,-0.81 c -0.06,-0.13 -0.09,-0.21 -0.09,-0.21 0,0 -0.18,-0.44 -0.22,-0.61 a 0.94,0.94 0 0 1 0,-0.28 h 0.33 a 6.94,6.94 0 0 1 1.73,0.62 7.88,7.88 0 0 0 0.59,-2.47 c 0,-0.45 -0.43,-3.84 -0.62,-4.87 -0.76,-0.88 -2.13,-2.46 -2.44,-2.73 a 41.18,41.18 0 0 1 -4,-2.53 13.19,13.19 0 0 1 2.3,-1.6 c 1.66,1.73 3.86,1.83 5.6,2.81 z m -2,-9.41 c -0.74,5.3 -6.63,7.12 -10.58,10.65 a 3.79,3.79 0 0 1 -0.16,-1 c 3.14,-3 9.52,-5 9.67,-10.46 0,-0.88 -0.51,-4.4 -4.83,-6 -0.12,-0.25 -0.86,-1.56 -1.07,-1.89 4.43,1.61 7.52,5.1 7.02,8.75 z m -16.05,-25.1 c -2.57,0.59 -3.62,0.21 -5.09,0.63 a 5.18,5.18 0 0 1 2.27,-3 c 1.07,-0.63 4.37,-0.19 5.58,-1.08 a 3.66,3.66 0 0 1 -2.76,3.45 z m -2.53,-3.2 a 2.94,2.94 0 0 1 1.4,-2.54 c 1.07,-0.69 4.68,-0.12 6.3,-1.28 -0.42,3.82 -6.43,3.3 -7.7,3.82 z m 1.37,-3.4 c 1.53,-3.42 6,-2 8.68,-3.11 -1.14,3.2 -5.74,2.06 -8.68,3.09 z m 1.68,-2.6 c 2.61,-3.76 5.39,-2.42 11.09,-3.68 -3.1,3.56 -7.66,2.2 -11.09,3.68 z m 1.58,-7.88 c 1.58,-1 9.83,0 17.81,-2.72 a 4,4 0 0 1 -2,2.11 c -5.37,1.81 -15,0.88 -16.36,2.27 -1,1 -2.73,4 -4,6 0,0 0.11,-1.73 0.11,-1.73 1.72,-2.29 2.88,-5.05 4.44,-5.97 z m -3.08,2.69 c -1,1.83 -1.92,2.4 -2.64,2.41 a 0.51,0.51 0 0 1 0,-0.18 5.56,5.56 0 0 1 0.49,-0.9 c 0.08,-0.13 0.32,-0.34 0.2,-0.5 -0.12,-0.16 -0.66,-0.15 -0.77,-0.15 a 2.2,2.2 0 0 1 -0.66,-0.12 0.74,0.74 0 0 1 -0.2,-0.14 c 0.79,-0.72 2.38,-0.33 3.58,-0.46 z m -1.22,-0.94 c -0.27,0.52 -1.62,0.48 -2.13,0.59 l -0.31,-0.33 c 0.43,-0.49 1.77,-0.2 2.44,-0.3 z m -2.79,2.09 c 0.06,-0.1 0.45,0 0.57,0 0.12,0 0.82,0.08 0.8,0.15 a 2.35,2.35 0 0 1 -0.54,0.85 0.51,0.51 0 0 1 -0.16,0.09 1.21,1.21 0 0 1 -0.68,-1.05 0.04031129,0 97.125016 0 0 0.01,-0.08 z m -5.79,-2 c 0.79,0.31 1.09,0.75 1,0.91 -0.09,0.16 -1,0.49 -1.14,0.12 a 1.77,1.77 0 0 1 0.14,-1.05 z m -1.27,5.81 a 21.06,21.06 0 0 0 -3.06,-1.15 6.55,6.55 0 0 1 2.25,0 21.76,21.76 0 0 1 2.16,1 c -2.55,-4.42 -3.91,-4.6 -5.72,-4.53 0.31,-1.34 1.79,-2.33 5.21,-1.48 a 4.85,4.85 0 0 1 -0.1,1.42 0.81,0.81 0 0 0 -0.49,0.76 c 0,0.93 2.28,1.64 2.08,3.38 -0.08,0.71 -0.22,1.48 -0.56,1.46 -0.34,-0.02 -0.43,-0.17 -0.84,-0.41 -0.41,-0.24 -0.93,-0.44 -0.93,-0.45 z m 4.8,5.22 c -2.51,1.82 -6.58,1.46 -9.37,3 -0.08,0 0,-0.06 0,-0.14 0.41,-2.39 3.4,-2.61 5.52,-3.07 1.65,-0.36 5.42,-1.8 6.16,-3.26 0,-0.1 0,-0.08 0,-0.17 -4.43,2.82 -7,2.35 -9.38,3.41 a 15.77,15.77 0 0 1 3.89,-2.83 6,6 0 0 0 2.34,-2.4 c 0,-0.3 -0.43,-1.73 -3,-3.46 a 0.29,0.29 0 0 1 0,-0.38 11.28,11.28 0 0 1 2.59,-0.37 11.21,11.21 0 0 0 -2,-1.77 c -0.16,-0.17 0,-0.35 0,-0.39 a 4.92,4.92 0 0 1 2.27,-0.1 9.93,9.93 0 0 1 3.18,1.7 c -1.39,1.77 0.31,3.15 1.84,3 0.75,4.33 -2.47,7.49 -3.67,8.26 -1.2,0.77 -3.26,1.68 -3.63,3.36 0,0.17 0,0.21 0.15,0.1 1.09,-1.32 2.59,-1.54 4,-2.5 2.77,-1.87 7.49,-11.73 8.46,-12.46 2,-1.48 12.35,-0.1 19.73,-3.38 -3.84,5.4 -15.71,4.56 -18.07,5.41 a 6,6 0 0 0 -3.54,2.45 c -1.1,1.11 -5.27,9.78 -7,11.51 a 2.87,2.87 0 0 1 -2.52,0.71 c 0.9,1.07 2.92,0.25 3.83,-0.34 1.36,-0.88 3.73,-0.14 6.36,-1 0.29,1 -0.95,2.4 -1.53,2.77 -1.83,1.17 -4.65,0.15 -6.29,0.47 2.08,1 4.37,1.2 5.76,0.5 0.54,2.28 -3,3.31 -5.28,2.47 -1.69,-0.62 -3,-3.28 -3.4,-3.29 a 5.25,5.25 0 0 0 2.69,3.69 9.68,9.68 0 0 0 2.82,0.72 19,19 0 0 1 2.29,2.53 c 1.77,1.1 5.88,2 8.58,4.27 5.81,5 3.19,9.08 3.19,9.08 -0.49,1.61 -4.36,5.13 -5,6.63 -0.53,1.33 -0.26,5.34 0.15,7.38 -1.13,1.51 -7.35,6 -8.88,8 2.09,-0.24 2.54,0.43 2.69,1.28 a 2.16,2.16 0 0 0 -3.16,0.19 h -2 a 2,2 0 0 0 -1.25,-1.41 v 0 a 2,2 0 0 1 -0.27,-0.38 0.42,0.42 0 0 1 0,-0.35 0.53,0.53 0 0 1 0.27,-0.29 2.1,2.1 0 0 1 1.11,0.66 l 0.2,-0.07 a 1.32,1.32 0 0 0 -0.09,-0.68 c 0.09,-0.13 6.21,-4.75 6.71,-5.16 0.19,-0.38 1.27,-2.72 0.79,-7.33 -0.32,-3 -2.38,-4.67 -1.26,-11.17 a 10.67,10.67 0 0 1 1.6,-3.82 c 0.87,-0.95 1.35,-0.53 2.35,-1.17 a 4.31,4.31 0 0 0 -3.25,1.06 7.87,7.87 0 0 0 -1.41,2.6 c -1.35,-0.46 -2.69,-1.51 -5.09,-1.47 -2.4,0.04 -4.23,-1.92 -4.88,-2.89 1,-0.73 1.12,-1.73 0.77,-3.11 -0.48,2.91 -3.62,3.48 -6,6 a 46.18,46.18 0 0 0 -3.64,4.2 c 0,-0.22 -0.31,-0.45 -0.45,-0.53 a 8.73,8.73 0 0 1 0,1 c -0.15,0 -0.57,-0.19 -0.74,-0.26 a 3,3 0 0 1 -0.29,-0.17 c -0.14,-0.09 -0.4,-0.3 -0.4,-0.3 a 3.23,3.23 0 0 0 -0.45,-0.36 v -1.18 a 6.53,6.53 0 0 0 0.61,-0.68 l 0.8,-0.33 v 0 c -0.15,0.45 -0.41,0.83 -0.47,1.15 1.53,0 3.57,-4.1 4,-5 0.43,-0.9 2.18,-6.06 3.28,-7.43 0,-0.06 -0.07,-0.08 -0.14,-0.12 a 13.1,13.1 0 0 0 -2.17,2.73 c -2,-1.32 -0.71,-3.41 0.58,-4.38 1.29,-0.97 4.36,-1.81 5.1,-3.58 -0.17,0 -1,0.57 -2.11,1.16 -1.11,0.59 -4.32,1.66 -5.22,3.58 -2,-6.34 4.12,-5.85 5.63,-7.33 a 10.17,10.17 0 0 0 -5.57,1.74 c 0.93,-5.38 7.65,-2.47 10.68,-6.48 0.02,-0.09 -0.07,-0.02 -0.14,-0.02 z m -13.68,22.19 a 2,2 0 0 1 0.37,1 1.36,1.36 0 0 1 -0.25,0.11 h -0.24 a 2.66,2.66 0 0 0 0.12,-1.11 z m 3.6,-19.71 c 0.1,1.22 -0.71,2.32 -1.23,4.17 a 35.9,35.9 0 0 0 -1.49,-6.34 c 1.42,-1.34 0.49,-3.42 0.25,-3.95 l 0.37,-0.36 c 0.38,0.91 1.95,4.56 2.1,6.48 z m -3.45,-4.13 a 1.55,1.55 0 0 0 -0.25,-0.41 v -0.07 c -0.07,-0.17 0.09,-0.28 0.31,-0.34 a 0.57,0.57 0 0 1 0.54,0.14 2.57,2.57 0 0 1 0.4,0.55 2,2 0 0 1 -1,1.89 2.42,2.42 0 0 0 0,-1.76 z m 0.23,-7.8 a 2.26,2.26 0 0 1 0.6,0.42 l 0.19,0.23 a 2.48,2.48 0 0 1 0.28,0.61 0.66,0.66 0 0 1 -0.37,0.68 l -0.85,0.28 a 3,3 0 0 0 0.38,-0.95 3.7,3.7 0 0 0 -0.23,-1.27 z m -0.28,2.51 c 0.17,0 0.56,-0.17 0.85,-0.27 a 5.64,5.64 0 0 0 0.71,-0.33 1.6,1.6 0 0 1 -0.48,1.13 7.45,7.45 0 0 0 -1.09,-0.5 z m 1,1.92 v 0 h -0.4 -0.68 a 1.35,1.35 0 0 0 0.12,-0.64 2.91,2.91 0 0 0 -0.24,-0.88 1.32,1.32 0 0 1 1.2,1.55 z m -1.59,0.57 v 0 l 1.4,-0.09 a 2.44,2.44 0 0 1 -0.69,0.73 4.48,4.48 0 0 1 0.43,0.64 0.3,0.3 0 0 1 -0.11,0.32 2,2 0 0 1 -0.64,0.29 l -0.46,0.07 h -0.06 z m 0.77,5.09 a 28.45,28.45 0 0 1 1.16,6.26 c 0.05,2.48 -0.24,2.92 0,3.12 a 2.75,2.75 0 0 0 0.4,0.27 c 0,0 -0.33,2.35 0.79,3.33 a 4.26,4.26 0 0 0 1.39,2.89 c -0.31,1.13 -2.27,5.67 -3,6.39 a 2,2 0 0 0 -1.14,-1.89 3.61,3.61 0 0 0 -1.44,-0.28 l 0.44,-10.58 c 0.13,-2.9 0.26,-6.14 0.4,-9.31 a 2.61,2.61 0 0 0 1,-0.2 z m -5.4,-6.74 a 3.88,3.88 0 0 1 -2.84,-3.6 l 6.71,1.31 a 3.1,3.1 0 0 1 -3.87,2.29 z m -2.67,-10.35 c 1.11,0.19 4.52,0.88 7,1.45 l -0.11,2.82 c -1.6,-0.38 -6.09,-1.2 -7.05,-1.38 z m -0.18,3.55 c 0,0 4.7,0.84 7.05,1.4 0,0 0,1.09 -0.05,1.3 a 6.25,6.25 0 0 1 -0.19,1.26 c -2.17,-0.5 -6.89,-1.33 -6.89,-1.33 z m -7.62,0.91 c 0,-0.12 0.64,-0.5 0.91,-0.92 a 3.07,3.07 0 0 0 -0.69,-2.54 c -0.44,0 -0.39,-0.28 -0.15,-0.44 -0.13,-0.49 0.39,-0.37 0.53,-0.22 0.14,-0.06 0.41,0 0.25,0.24 -0.16,0.24 -0.2,0.1 -0.15,0.33 0.05,0.23 0.22,0.19 0.42,0.48 0.2,0.29 0,0.39 0.41,0.8 0.25,-0.29 1,-0.31 1,-0.73 0,-0.42 -0.6,0.13 -0.6,-0.21 0,-0.34 0.22,-0.2 0.43,-0.21 0,-0.14 0,-0.49 -0.23,-0.5 -0.23,-0.01 -0.43,-0.38 -0.19,-0.45 0,-0.38 0.3,-0.16 0.42,-0.09 0.12,0.07 0.22,-0.09 0.4,-0.07 a 2.09,2.09 0 0 0 1.44,0.76 5.56,5.56 0 0 1 -0.09,1.87 c -0.17,0.6 -0.48,0.49 -0.5,1.15 0,0.47 0.42,0.58 0.61,0.74 0.19,0.16 0.25,0.29 0.45,0.36 a 0.46,0.46 0 0 0 0.53,-0.16 c 0.18,-0.19 -0.38,-2.46 -0.42,-3.3 -0.04,-0.84 1.32,-1 1.57,-0.66 a 0.66,0.66 0 0 1 -0.29,1 c -0.33,0.13 -0.47,-0.39 -0.29,-0.56 0.18,-0.17 0,-0.45 -0.33,-0.27 -0.73,0.43 0.55,3.54 0.27,4.14 -0.28,0.6 -0.45,0.45 -0.52,0.55 -0.07,0.1 -0.09,0.31 -0.22,0.6 -0.13,0.29 -0.6,0.52 -0.58,0.9 0.02,0.38 0.3,0.56 0.29,0.66 a 0.37,0.37 0 0 1 -0.41,0.33 2.65,2.65 0 0 0 -0.85,0.26 c 0.24,0.47 -0.2,0.61 -0.52,0.31 -0.49,0.09 -0.55,-0.16 -0.27,-0.45 -0.18,-0.59 0.38,-0.38 0.49,-0.27 a 0.45,0.45 0 0 0 0.59,-0.24 c 0.05,-0.24 -0.67,-1 -0.68,-1.12 -0.01,-0.12 0.29,-0.18 0.28,-0.28 -0.01,-0.1 -0.85,-0.13 -0.85,-0.13 0,0 0.06,0.82 0,0.87 a 8.44,8.44 0 0 0 -1.29,0.16 c 0.13,0.49 -0.37,0.54 -0.54,0.14 -0.55,0 -0.82,-0.42 -0.32,-0.62 0,-0.55 0.4,-0.42 0.37,-0.13 -0.03,0.29 0.83,0.13 1,-0.05 0.17,-0.18 -0.05,-1 0.12,-1.21 0.17,-0.21 1.11,0 1.28,-0.17 0.17,-0.17 -1.27,-0.08 -1.44,-1.06 -0.16,0.08 -1.19,0.32 -1.36,0.54 0.06,0.24 0,0.48 -0.36,0.38 -0.19,0.4 -0.58,0 -0.32,-0.19 -0.13,-0.32 -0.04,-0.43 0.4,-0.32 z m 14.37,8.17 v 0.94 c -0.87,-0.34 -9.34,-3.48 -23.28,-3.48 a 73.35,73.35 0 0 0 -22.2,3.37 v -0.91 c 13.25,-4.7 32.19,-4.72 45.48,0.04 z m -45.74,-4.68 0.63,-2.77 1.47,2.51 0.84,-2.79 1.35,2.36 0.78,-2.8 1.32,2.34 c -1.06,4.99 -5.55,4.66 -6.39,1.11 z m 14.9,-7.66 c 0.71,1.23 4.94,7.8 4.94,7.85 a 2.52,2.52 0 0 1 -2.59,0 c -2.06,-1.46 -1.98,-2.45 -2.35,-7.89 z m 7.85,-3.1 c 2.65,0 5.44,0.11 6.91,0.2 0,0 0.12,5.77 0.1,7.1 0,1 -0.61,3.9 -3.54,3.9 -2.59,0 -3.47,-3.1 -3.47,-5 z m -0.86,0 v 6.69 l -4.05,-6.64 c 1.1,-0.01 2.94,-0.01 4.05,-0.05 z m -7.05,1.43 v -1.22 l 2.16,-0.12 4.84,7.86 a 3.62,3.62 0 0 1 -1.32,2.62 z m -0.39,5.05 c 0.19,1.16 0,5.08 -3.17,5.41 -0.12,-1.4 -0.4,-5 -0.4,-5 1.85,-0.24 3.57,-0.41 3.57,-0.41 z m -4.38,-4.27 c 0.18,1.85 0.42,4.35 0.42,4.35 -1.31,0.19 -3.43,0.58 -3.43,0.58 -0.09,-1.35 -0.36,-4.3 -0.36,-4.3 1.5,-0.3 2.99,-0.57 3.37,-0.63 z m -3.94,0.76 0.46,5.67 -1.69,-2.43 -0.74,2.58 -1.38,-2.25 -0.83,2.73 -1.49,-2.58 -0.52,2.12 c 0,0 -0.17,-2.42 -0.24,-4.3 0,0.02 3.19,-0.89 6.43,-1.54 z m -5.39,36.69 -0.13,-0.1 c 0,0 -1.13,-0.83 -2,-1.59 a 21.48,21.48 0 0 1 -2.61,-3 c -0.4,-0.59 -0.36,-0.6 -0.36,-0.6 a 2.08,2.08 0 0 0 0.55,-0.71 11.36,11.36 0 0 0 0.66,-2.15 2.61,2.61 0 0 1 1,-1.62 1.37,1.37 0 0 1 0.5,-0.21 26.29,26.29 0 0 0 -0.59,-5.08 31,31 0 0 1 -0.46,-4.78 4.6,4.6 0 0 1 0.52,-2.67 13.58,13.58 0 0 1 1.75,-2.22 z m -1.35,-27.7 0.08,1.6 c -0.71,1.41 -2.6,3.44 -2.76,4.12 a 28,28 0 0 0 0.53,7.59 35.32,35.32 0 0 0 -1.92,-4.19 c -0.05,-0.83 -0.21,-2.56 -0.22,-3.18 a 44.4,44.4 0 0 0 4.29,-5.94 z m -9.32,-4 a 3.38,3.38 0 0 1 0.55,-0.32 h 2.3 a 0.53,0.53 0 0 1 0.2,0 1.23,1.23 0 0 0 0.6,0 c 0.45,0.46 -0.75,1.36 -1,1.59 -0.25,0.23 -0.75,0.4 -0.76,0.84 a 1.34,1.34 0 0 0 1.54,1 c 0,0.51 -1.37,0.35 -2,0.25 a 2.75,2.75 0 0 0 -1.05,0 c -2.23,1.13 -3.28,3 -4,2.95 -0.4,0 -0.59,-0.6 -0.63,-1.37 a 2,2 0 0 1 1.15,-1.88 2,2 0 0 0 1,-2.06 c 0.87,0 2.69,0.44 3,0.91 a 3.45,3.45 0 0 1 0.12,-1.16 2.24,2.24 0 0 1 0.51,-0.74 1,1 0 0 0 -1,0.91 19.74,19.74 0 0 1 -4.6,-1.08 c 0.93,-0.48 2.72,-0.21 4.07,0.15 z m -9.33,-1.18 c 0.25,-0.68 1.55,-1.82 2.1,-2.92 0.09,1.13 -0.82,2.28 -0.88,3.31 -0.45,0.25 -0.68,0.5 -1.05,0.5 -0.07,0 -0.39,-0.32 -0.17,-0.89 z m -5.38,-2.69 a 6.5,6.5 0 0 1 0.8,2.64 c 0,0.27 1,0.21 2.15,0.23 -0.71,0.9 -1.6,0.68 -4.31,0.5 a 6.27,6.27 0 0 0 0,-0.88 c 1.03,-0.05 1.42,-0.39 1.36,-2.49 z m 1.16,4.08 c 0.1,0.42 -2.3,1 -2.43,0.83 a 2.56,2.56 0 0 1 -0.14,-1 16.63,16.63 0 0 1 2.57,0.17 z m -8.89,-3.66 a 5.37,5.37 0 0 1 1.42,2.06 c 0.12,0.35 2.68,0.42 3.26,0.28 0,0 0,0.76 -0.26,0.78 -0.56,0.05 -3.59,0.06 -5.37,0 a 9.16,9.16 0 0 0 -0.37,-0.85 c 2.22,0.06 1.7,-0.97 1.32,-2.27 z m 4,4.79 c -0.55,0.37 -3.68,0.37 -4.62,0.06 a 12.91,12.91 0 0 0 -0.33,-1.25 c 2.15,0 5.09,0 5.28,0 0.19,0 -0.12,1.09 -0.3,1.16 z m -10.63,-3.25 c 0,-0.61 -0.27,-2 -0.09,-1.91 0.54,0.33 0.85,2 1.21,2.18 0.2,0.1 1.89,0.19 2.52,0.28 l 0.07,0.82 a 23.39,23.39 0 0 1 -4.71,-0.7 6.47,6.47 0 0 1 -0.4,-0.8 c 0.38,0.07 1.4,0.13 1.4,0.13 z m 3.89,2 a 5.53,5.53 0 0 1 -0.1,1 14,14 0 0 1 -4.3,-0.51 7.13,7.13 0 0 0 -0.37,-1.19 37.14,37.14 0 0 0 4.77,0.67 z m 15.17,1.82 v -0.16 a 7.35,7.35 0 0 0 -3.13,0.23 31.72,31.72 0 0 1 -9.22,1.09 31.44,31.44 0 0 1 -8.42,-1.18 c -1.05,-0.34 -3.6,-1.54 -4.17,-2.44 a 9.81,9.81 0 0 0 3.65,1 c 0,-0.19 -0.27,-2.4 -0.43,-3.47 a 17.53,17.53 0 0 1 1.59,4 14.83,14.83 0 0 0 5.31,0.64 c 0.2,0 0.39,-1.86 -0.09,-3.4 -0.07,-0.22 -0.11,-0.44 0.12,-0.11 a 10,10 0 0 1 1.31,3.81 c 1.58,0.51 5.41,0.09 5.62,-0.21 a 13.38,13.38 0 0 0 0.81,-4.12 c 0.91,1.22 0.19,2.94 0.89,4.12 a 10.34,10.34 0 0 0 4.46,-1.58 c 1,-0.77 1.31,-1.85 2.07,-4 0,3.14 -1,3.62 0.51,4.55 0.78,-0.51 1.49,-1.42 3,-1.27 1.21,0.12 1.86,0.4 1.54,0.48 a 3.51,3.51 0 0 0 -1.46,0.11 2.5,2.5 0 0 0 -1.18,0.98 2.41,2.41 0 0 0 1.47,0.58 1.93,1.93 0 0 0 1.78,-0.89 c 0.67,0.2 1.54,0.38 1.32,1.15 a 1.58,1.58 0 0 1 -0.76,0.9 c -0.25,0.21 -0.54,0.26 -0.78,0.62 -0.57,0.83 -0.82,1.5 -0.38,3.19 -0.71,-0.34 -3.05,-0.57 -4.54,-1.84 -0.42,-0.35 0,-1.28 -0.17,-1.44 -0.33,-0.36 -1.54,-0.07 -1.8,-0.11 -0.07,-0.11 0.64,-0.54 1.08,-1.26 z m 5.37,-1.28 c -0.25,0.42 -1.26,0.68 -1.6,0.2 0.5,-0.77 1.11,-0.79 1.44,-0.56 0.16,0.1 0.23,0.22 0.16,0.33 z m -8.85,6 a 5.12,5.12 0 0 1 1.4,-2.25 c 0.24,-0.16 0.48,-0.34 0.76,-0.49 0,0 0,0.29 0,0.4 a 3.18,3.18 0 0 1 -0.16,0.39 6.84,6.84 0 0 1 -0.51,0.71 c 0,0 0.2,0.1 0.29,0 a 2.66,2.66 0 0 0 0.47,-0.31 2.79,2.79 0 0 0 0.51,-0.72 2.46,2.46 0 0 1 0.36,-0.57 l 0.24,-0.26 c 0.08,-0.09 0.09,-0.09 0.16,0 a 0.76,0.76 0 0 1 0.16,0.81 4.67,4.67 0 0 1 -3.68,2.28 z m -15.12,31.44 c 0.36,-1.56 1.25,-2.08 2.91,-2.3 0.08,1.71 -2.19,2.13 -2.91,2.3 z m 3.32,0.77 c -0.09,-2.29 1.81,-4.25 2.31,-4.9 0.5,-0.65 1.93,-3 2.88,-3.67 a 28.2,28.2 0 0 1 5.9,-2.41 2.74,2.74 0 0 0 1,-0.39 c 1,-0.58 2.06,-2.7 2.56,-3.29 0.25,-0.3 0.62,-0.67 1,-1 0.83,-0.86 1.4,-3.63 3.31,-4.73 a 4.72,4.72 0 0 1 2.87,-0.44 c 0.23,0 0.21,0 0.23,-0.15 -0.69,-0.57 -2.91,-0.36 -3.56,-0.83 -0.65,-0.47 -0.67,-1.59 -1,-3.19 a 7.82,7.82 0 0 0 4.58,1.43 c -0.45,-0.59 -4.79,-1.33 -6,-4.42 a 14.68,14.68 0 0 0 6,1.94 c -1.9,-1.53 -6.86,-1.67 -7.68,-5.93 1.43,1.62 4,2.28 7.14,3.06 -1.82,-1.64 -5.3,-1.34 -6.7,-4.15 a 7.92,7.92 0 0 0 0.63,-0.54 c 1,0.53 4.91,1.7 6.64,2.25 a 14.41,14.41 0 0 1 4.45,1.83 11.83,11.83 0 0 1 1.71,1.93 c -0.36,-0.16 -3,-0.92 -5.29,-1.65 l 0.05,0.16 c 2.39,2.39 6.7,1.64 7.73,5.57 -1.13,-1.23 -3.37,-2.26 -6.61,-2.76 0,0 -0.13,0 -0.15,0.05 4.23,1.7 6.57,3 7.4,5.54 a 9.6,9.6 0 0 0 -6.27,-2.78 c 3.64,1.48 5.71,3 6.63,5.3 a 18.82,18.82 0 0 1 -0.15,2.05 c -0.84,-2.42 -3.25,-4.38 -8.29,-5.7 0,0 -0.16,0 -0.16,0.05 6.38,2.91 7.67,4.46 7.45,8 a 1,1 0 0 1 -0.38,0.75 c -0.13,0 -1.85,-1.92 -2.1,-2.1 -0.25,-0.18 -0.11,0.11 -0.11,0.11 0.78,2.45 3.71,5.24 4.82,6.24 a 27.68,27.68 0 0 1 2.92,3.08 c 0.19,0.42 0.14,4 0.2,4.51 a 7.85,7.85 0 0 0 0.52,1.85 c 0.12,0.91 0.25,1.78 0.41,2.62 a 7.86,7.86 0 0 1 0,1.19 c -1.78,0.15 -1.4,-2.68 -1.41,-5.37 a 7.38,7.38 0 0 0 -2.2,-5.17 13.72,13.72 0 0 0 -3.46,-1.62 c -1.29,-0.5 -3,-1.05 -5.46,-2.14 0,0 -0.38,-1.76 -0.68,-2.7 a 10.59,10.59 0 0 0 0.05,3.35 8.49,8.49 0 0 0 2.13,0.75 16.41,16.41 0 0 1 -10.9,5.89 3.65,3.65 0 0 0 -1.08,-3.4 3.9,3.9 0 0 0 -3.86,-0.37 c 1.52,0.15 3.7,0.83 4,2.31 a 15.41,15.41 0 0 1 -0.47,5.54 c -0.42,1.73 -0.89,3.34 -1.25,4.71 -0.56,2.12 -2.24,7.07 -2.18,7.26 a 3.06,3.06 0 0 0 0.85,1.55 c 0.76,0.47 10.25,3.09 10.46,3.3 a 18.82,18.82 0 0 1 2.63,4.36 4.28,4.28 0 0 1 -1.3,-0.15 c -0.5,-1.16 -1.86,-1.7 -2.57,-3.32 -0.66,-0.25 -8.73,-2.13 -11.92,-3.44 0.68,-0.47 0.4,-1.94 0.25,-2.2 0.12,-0.5 1.19,-4.54 1.19,-5.25 -0.06,-0.11 -0.09,-0.14 -0.2,-0.08 -0.48,1.59 -1.41,4.83 -1.55,5.22 0.14,0.71 0.31,2.31 -0.69,2 -0.41,-0.11 -0.37,-0.34 -0.34,-0.7 0.65,-2.91 2.07,-3.54 0.89,-9.36 -4.25,-0.84 -7.76,-3.54 -7.82,-5.45 z m -5.68,21 c -0.16,-0.71 -0.06,-8.41 -0.08,-9.18 a 3.24,3.24 0 0 0 0.83,0.39 c 1.57,-1.47 5.47,-2.85 6,-3.73 -0.01,-0.01 -0.01,-0.01 -0.01,-0.08 h -0.1 c -1,0.77 -4.5,2.08 -5.94,3.29 a 3.09,3.09 0 0 1 -0.72,-0.28 1,1 0 0 1 0.72,-1.12 c 2.77,-1.38 6,-1.65 7.61,-5.79 1.8,0.92 4.22,0.44 4.45,2.51 -1.36,1.78 -4.15,3.25 -7.05,4.33 -1.08,0.39 -2.72,1 -2.89,1.1 a 3.12,3.12 0 0 0 -1.44,2.49 c -0.08,0.71 -0.33,1.75 -0.37,2.64 a 8.52,8.52 0 0 0 0.22,2.77 28.09,28.09 0 0 0 2.27,2.66 c 0,0 -1,0.42 -1.33,0.13 -0.76,-0.58 -2,-1.39 -2.17,-2.11 z m -6.16,7.47 v -3.3 h 139.23 v 3.3 z"
         id="path44"
         style="fill:#1a1a18;stroke:#1a1a18;stroke-width:0.05px;stroke-miterlimit:10" />
      <path
         class="cls-2"
         d="m 562.65408,323.42293 c 0.05,0.21 0.46,0.12 0.4,-0.27 0.62,-0.28 3.4,-1 5.11,0.18 0,0 0.13,-0.2 0.05,-0.32 -0.64,-0.58 -0.47,-1 0.27,-1.22 -1,-0.51 -1.22,0.67 -2,0.52 -0.52,-0.11 -0.25,-0.83 0.49,-1 -1.29,-0.39 -1,1 -1.71,1 -0.71,0 -0.63,-0.87 -0.17,-1.29 -1.52,0.34 -0.14,1.43 -1.24,1.51 -0.48,0 -0.72,-0.65 -0.42,-1.31 -0.36,0 -0.95,0.61 -0.43,1.51 a 1.64,1.64 0 0 0 -0.21,0.14 c -0.42,-0.38 -0.7,0.07 -0.38,0.23 -0.43,0.2 0.01,0.47 0.24,0.32 z"
         id="path46"
         style="fill:#1a1a18;stroke:#1a1a18;stroke-width:0.05px;stroke-miterlimit:10" />
      <path
         class="cls-2"
         d="m 567.71408,328.73293 a 0.19,0.19 0 0 0 0,-0.22 c -0.86,-0.53 -0.06,-1.15 0.38,-1.22 -1.19,-0.34 -0.94,0.88 -1.73,0.71 -0.79,-0.17 -0.46,-1 0.19,-1.15 -1.08,-0.19 -0.86,1 -1.49,1 -0.63,0 -0.48,-0.8 0,-1.14 -1,0.14 -0.58,1.24 -1.14,1.28 -0.56,0.04 -0.53,-0.67 -0.08,-1.21 a 0.89,0.89 0 0 0 -0.56,1.38 c 0,0 -0.18,0.22 -0.24,0.32 -0.45,-0.23 -0.57,0.24 -0.26,0.3 -0.32,0.36 0.13,0.48 0.27,0.29 0.1,0.17 0.42,0 0.27,-0.34 0.49,-0.49 2.48,-0.73 4.39,0 z"
         id="path48"
         style="fill:#1a1a18;stroke:#1a1a18;stroke-width:0.05px;stroke-miterlimit:10" />
      <path
         class="cls-2"
         d="m 563.18408,326.09293 c 0.7,-0.67 2.75,-0.93 4.87,0 a 0.21,0.21 0 0 0 0,-0.23 0.64,0.64 0 0 1 0.09,-1.23 c -0.87,-0.48 -0.9,0.9 -1.69,0.67 -0.55,-0.15 -0.44,-0.94 0.28,-1.18 -0.25,-0.14 -0.45,0 -0.78,0.17 -0.33,0.17 -0.18,0.9 -0.78,0.87 -0.6,-0.03 -0.51,-0.87 0,-1.29 -1.17,0.14 -0.46,1.31 -1.37,1.36 -0.47,0 -0.62,-0.57 0.09,-1.25 a 1.18,1.18 0 0 0 -0.79,1.59 0.93,0.93 0 0 0 -0.21,0.14 c -0.4,-0.38 -0.69,0.14 -0.38,0.29 -0.45,0.27 0,0.65 0.23,0.37 0.06,0.23 0.55,0.16 0.44,-0.28 z"
         id="path50"
         style="fill:#1a1a18;stroke:#1a1a18;stroke-width:0.05px;stroke-miterlimit:10" />
      <path
         class="cls-1"
         d="m 544.87408,345.47293 a 1.45,1.45 0 0 1 0.93,0.81 l 5.8,3.49 c -0.18,0.15 -3.09,2.15 -3.09,2.15 -4,-0.73 -4,0.85 -4,1.56 h 6.94 c 0.18,0 7,-2 7,-2 a 4.53,4.53 0 0 0 0.4,-0.72 c 6.22,0.37 7.07,-3.26 10.1,-3.23 a 37.25,37.25 0 0 0 -0.24,4.16 c -2.75,-0.21 -3.51,1.06 -3.53,1.46 h 5.89 a 11.57,11.57 0 0 1 2.37,-4.42 13.8,13.8 0 0 0 5.72,3 c -0.26,0.42 -2.39,0.33 -2.37,1.68 h 4.56 l 0.18,-3.62 a 13.79,13.79 0 0 1 -2.7,-0.74 9.28,9.28 0 0 0 -1.72,-4.89 c 2.14,-0.91 2.5,-3.43 -0.17,-4.83 -2.96,-1.6 -8.96,1.59 -11.96,2.4 -0.78,0.23 -2.63,0.7 -3.42,-0.38 -1,-1.37 1.08,-3.05 0.92,-3.21 -0.16,-0.16 -2.86,0.94 -2.94,2.55 a 2.62,2.62 0 0 0 2.76,2.51 c 2.71,-0.06 5.48,-1.49 7.5,-2.23 3.51,-1.28 5.65,-1.32 6.91,-0.54 a 1.21,1.21 0 0 1 0.62,1.58 c -0.71,2 -3.45,0.28 -8,1.44 -3.92,1 -5.76,1.8 -9,0.91 a 7,7 0 0 1 -2.17,-0.69 c -0.3,-1.05 -0.77,-3.27 -1.87,-4.13 0.09,-0.78 0.6,-0.92 0.5,-1.13 -0.36,0 -1.22,0.55 -1.82,0.53 -0.31,0 -1.2,-0.18 -1.79,-0.19 a 7.9,7.9 0 0 0 -4.62,1.2 4.13,4.13 0 0 0 0.37,1.88 c 0.3,-0.2 0.53,-0.49 0.62,-0.48 0.6,0.2 0.6,0.44 0.57,0.65 -2.7,0.47 -3,-0.3 -3.43,-2 -0.07,-0.29 -0.24,-0.24 -0.27,0 0,3 0.79,2.64 3.84,2.65 0,0.57 -0.6,0.76 -1,0.24 -0.21,-0.11 0,0.85 0.2,1.41 0.12,0.36 1.48,-0.51 1.64,-0.48 -0.07,0.2 -0.13,0.91 -0.2,1.38 a 30.46,30.46 0 0 1 -3.59,-0.55 c -1.22,-1.74 -4.35,-1.38 -4.19,0.75 a 12,12 0 0 1 1.75,0.07 z m 6.28,-5.91 a 2.57,2.57 0 0 1 0.87,0 c 0,0 -0.65,0.7 -0.78,0.64 -0.13,-0.06 -0.12,-0.47 -0.09,-0.64 z"
         id="path52"
         style="fill:#1a1a18" />
      <path
         class="cls-1"
         d="m 544.87408,369.16293 h 6.74 c 0.18,0 6.83,-2 6.83,-2 a 4,4 0 0 0 0.39,-0.71 c 6,0.4 7,-3.28 9.89,-3.13 a 34.74,34.74 0 0 0 -0.25,4 c -2.68,-0.2 -3.42,1 -3.44,1.42 h 5.75 a 11.33,11.33 0 0 1 2.25,-4.32 13.23,13.23 0 0 0 5.56,2.89 c -0.25,0.41 -2.33,0.33 -2.3,1.64 h 4.43 l 0.17,-3.52 a 13.48,13.48 0 0 1 -2.62,-0.72 9,9 0 0 0 -1.67,-4.76 c 2.08,-0.88 2.43,-3.33 -0.17,-4.7 -2.92,-1.53 -8.83,1.63 -11.66,2.43 -0.76,0.22 -2.55,0.68 -3.32,-0.37 -1,-1.34 1,-3 0.89,-3.13 -0.11,-0.13 -2.77,0.92 -2.86,2.49 a 2.56,2.56 0 0 0 2.69,2.44 c 2.63,-0.07 5.32,-1.46 7.28,-2.17 3.42,-1.25 5.57,-1.29 6.79,-0.53 a 1.18,1.18 0 0 1 0.61,1.54 c -0.69,2 -3.43,0.27 -7.84,1.4 -3.81,1 -5.6,1.75 -8.74,0.88 a 6.36,6.36 0 0 1 -2.1,-0.67 c -0.3,-1 -0.75,-3.18 -1.83,-4 0.09,-0.76 0.58,-0.9 0.49,-1.1 -0.35,0 -1.18,0.53 -1.77,0.52 -0.23,0 -1.09,-0.18 -1.74,-0.19 a 7.74,7.74 0 0 0 -4.5,1.17 3.89,3.89 0 0 0 0.37,1.82 c 0.29,-0.19 0.51,-0.47 0.6,-0.46 0.58,0.2 0.58,0.43 0.55,0.63 -2.62,0.46 -2.94,-0.3 -3.33,-1.93 -0.07,-0.28 -0.23,-0.23 -0.26,0 0,2.95 0.74,2.54 3.7,2.55 0,0.56 -0.55,0.77 -0.93,0.26 -0.27,-0.13 0,0.83 0.19,1.38 0.12,0.34 1.44,-0.5 1.6,-0.47 -0.07,0.19 -0.13,0.89 -0.2,1.34 a 28.81,28.81 0 0 1 -3.49,-0.53 c -1.19,-1.7 -4.23,-1.35 -4.07,0.72 a 10.31,10.31 0 0 1 1.63,0.06 1.41,1.41 0 0 1 0.9,0.78 l 5.64,3.4 c -0.17,0.14 -3,2.08 -3,2.08 -3.92,-0.65 -3.85,0.88 -3.85,1.57 z m 6.5,-13 c -0.09,0 -0.1,-0.41 -0.08,-0.6 a 2.69,2.69 0 0 1 0.81,0 7.59,7.59 0 0 1 -0.73,0.64 z"
         id="path54"
         style="fill:#1a1a18" />
      <path
         class="cls-1"
         d="m 572.04408,382.84293 h 4.4 l 0.7,-3.06 -1.61,-0.72 a 13.87,13.87 0 0 0 -1.44,-4.15 c 2.44,-0.56 2.67,-3.52 0.74,-4.33 -2.64,-1.1 -5.85,0.95 -10.38,2.32 -0.65,0.19 -2.77,0.63 -3,-0.37 a 3.85,3.85 0 0 1 0.57,-2.63 c -0.21,-0.21 -2.07,1.32 -1.94,2.61 a 1.88,1.88 0 0 0 2.09,1.7 c 4.05,-0.1 9.26,-4.14 12.16,-2.63 0.47,0.25 0.95,1.11 0.47,1.68 -1.23,1.42 -3.14,-0.45 -7.56,0.87 -1.31,0.4 -5.66,2 -8.08,0.85 -1.09,-0.51 -0.32,-2.41 -1.86,-3.87 0.12,-0.28 0.46,-0.6 0.38,-0.78 -0.3,0 -0.8,0.18 -1.31,0.17 -0.25,0 -1.28,-0.33 -1.77,-0.35 a 6.07,6.07 0 0 0 -4,1 8.94,8.94 0 0 0 0.38,1.58 c 0.24,-0.17 0.42,-0.32 0.58,-0.3 0.36,0.12 0.43,0.35 0.41,0.53 -1.86,0.4 -3,0.27 -3.3,-1.07 -0.06,-0.24 -0.2,-0.2 -0.23,0 -0.08,2.81 2.05,1.74 3.81,1.65 -0.19,0.54 -0.45,0.79 -1,0.39 -0.18,-0.09 0,0.69 0.24,1.15 0.24,0.46 1.07,-0.38 1.68,-0.46 a 5.54,5.54 0 0 1 -0.36,1.43 28.67,28.67 0 0 1 -3.87,-0.8 c -0.89,-1.63 -3.3,-0.87 -3.15,0.7 l 1.6,0.05 c 0.5,0.58 5.9,4.7 5.9,4.7 a 8.25,8.25 0 0 1 -2.09,1.21 c -2.19,-0.62 -2.35,0.54 -2.36,1.35 h 6.37 c 0.16,0 5.82,-1.5 5.82,-1.5 l 0.11,-0.56 c 2.75,-0.84 5.15,-2.56 6.22,-3 a 20,20 0 0 0 -0.32,3.26 c -2.71,0 -3.47,0.62 -3.47,1.6 h 4.74 c 0,0 1.85,-3.51 2.94,-4.38 a 29.43,29.43 0 0 0 3.2,2.57 c -1.05,0.16 -2.47,0.48 -2.41,1.59 z m -19.16,-11.46 a 1,1 0 0 1 -0.16,-0.42 c 0,0 0.46,-0.1 0.71,-0.13 0,0 -0.45,0.61 -0.55,0.55 z"
         id="path56"
         style="fill:#1a1a18" />
      <polygon
         class="cls-1"
         points="516.6,169.14 521.83,169.14 521.83,150.47 517.08,150.47 517.08,161.11 516.71,161.11 510.73,150.47 505.48,150.47 505.48,169.14 510.23,169.14 510.23,158.58 510.6,158.58 "
         id="polygon58"
         style="fill:#1a1a18"
         transform="translate(89.984082,319.73293)" />
      <polygon
         class="cls-1"
         points="411.3,154.57 416.42,154.57 416.42,150.47 401.19,150.47 401.19,154.57 406.31,154.57 406.31,169.14 411.3,169.14 "
         id="polygon60"
         style="fill:#1a1a18"
         transform="translate(89.984082,319.73293)" />
      <polygon
         class="cls-1"
         points="467.14,169.14 479.74,169.14 479.74,164.93 472.11,164.93 472.11,150.47 467.14,150.47 "
         id="polygon62"
         style="fill:#1a1a18"
         transform="translate(89.984082,319.73293)" />
      <polygon
         class="cls-1"
         points="441.48,169.14 454.48,169.14 454.48,165.35 446.44,165.35 446.44,161.64 452.87,161.64 452.87,157.86 446.44,157.86 446.44,154.25 452.87,154.25 452.87,150.47 441.48,150.47 "
         id="polygon64"
         style="fill:#1a1a18"
         transform="translate(89.984082,319.73293)" />
      <polygon
         class="cls-1"
         points="431.51,169.14 436.47,169.14 436.47,150.47 431.51,150.47 431.51,157.7 425.85,157.7 425.85,150.47 420.89,150.47 420.89,169.14 425.85,169.14 425.85,161.91 431.51,161.91 "
         id="polygon66"
         style="fill:#1a1a18"
         transform="translate(89.984082,319.73293)" />
      <path
         class="cls-1"
         d="m 624.24408,470.20293 h -7.39 v 18.67 h 7.39 c 5.82,0 8.65,-3.95 8.65,-9.34 0,-5.39 -2.83,-9.33 -8.65,-9.33 z m -0.74,14.88 h -1.69 v -11.1 h 1.69 c 3.46,0 4.42,1.84 4.42,5.55 0,3.71 -0.94,5.55 -4.42,5.55 z"
         id="path68"
         style="fill:#1a1a18" />
      <path
         class="cls-1"
         d="m 588.33408,466.35293 a 2.46,2.46 0 1 0 -2.45,2.4 2.34,2.34 0 0 0 2.45,-2.4 z"
         id="path70"
         style="fill:#1a1a18" />
      <path
         class="cls-1"
         d="m 579.48408,463.93293 a 2.41,2.41 0 1 0 0,4.82 2.41,2.41 0 1 0 0,-4.82 z"
         id="path72"
         style="fill:#1a1a18" />
      <path
         class="cls-1"
         d="m 579.42408,470.20293 -5.52,18.3 v 0.37 h 5 l 0.83,-3.23 h 5.84 l 0.86,3.23 h 5 v -0.37 l -5.45,-18.3 z m 1.23,11.76 1.87,-7.15 h 0.37 l 1.84,7.15 z"
         id="path74"
         style="fill:#1a1a18" />
      <text
         xml:space="preserve"
         id="text19295"
         style="font-style:normal;font-variant:normal;font-weight:normal;font-stretch:normal;font-size:40px;line-height:1.25;font-family:'Tw Cen MT';-inkscape-font-specification:'Tw Cen MT, Normal';font-variant-ligatures:normal;font-variant-caps:normal;font-variant-numeric:normal;text-align:start;letter-spacing:0px;word-spacing:0px;writing-mode:lr-tb;white-space:pre;shape-inside:url(#rect19297);fill:#000000;fill-opacity:1;stroke:none"
         transform="translate(-173.52933,27.020127)" />
    </g>
  </g>
</svg>
