<?xml version="1.0" encoding="UTF-8" standalone="no"?>
<!-- Created with Inkscape (http://www.inkscape.org/) -->

<svg
   width="297mm"
   height="210mm"
   viewBox="0 0 1122.5197 793.70081"
   version="1.1"
   id="svg5"
   inkscape:version="1.1.1 (3bf5ae0d25, 2021-09-20, custom)"
   sodipodi:docname="willkommen_in_the_laend.svg"
   xmlns:inkscape="http://www.inkscape.org/namespaces/inkscape"
   xmlns:sodipodi="http://sodipodi.sourceforge.net/DTD/sodipodi-0.dtd"
   xmlns="http://www.w3.org/2000/svg"
   xmlns:svg="http://www.w3.org/2000/svg">
  <sodipodi:namedview
     id="namedview7"
     pagecolor="#ffffff"
     bordercolor="#666666"
     borderopacity="1.0"
     inkscape:pageshadow="2"
     inkscape:pageopacity="0.0"
     inkscape:pagecheckerboard="0"
     inkscape:document-units="mm"
     showgrid="false"
     inkscape:zoom="1.079071"
     inkscape:cx="475.40892"
     inkscape:cy="504.6007"
     inkscape:window-width="2556"
     inkscape:window-height="1392"
     inkscape:window-x="0"
     inkscape:window-y="46"
     inkscape:window-maximized="1"
     inkscape:current-layer="layer2" />
  <defs
     id="defs2" />
  <g
     inkscape:label="bg"
     inkscape:groupmode="layer"
     id="layer1"
     sodipodi:insensitive="true">
    <rect
       style="fill:#ffff00;fill-rule:evenodd;stroke-width:0.695305;stroke-miterlimit:10;paint-order:stroke markers fill;stop-color:#000000"
       id="rect846"
       x="-0.70079595"
       y="-2.1476407"
       width="0"
       height="0"
       rx="1122.5197" />
    <path
       id="path6635"
       style="fill:#ffff00;fill-rule:evenodd;stroke-width:1.20207;stroke-miterlimit:10;paint-order:stroke markers fill;stop-color:#000000"
       d="M 0,0 H 1122.5197 V 793.70081 H 0 Z" />
  </g>
  <g
     inkscape:groupmode="layer"
     id="layer2"
     inkscape:label="bawue-siluette">
    <path
       d="m 487.41212,81.897286 52.67861,52.028784 a 8.1494917,8.1494917 0 0 0 10.95643,0.46225 L 638.8426,61.066329 a 11.676583,11.676583 0 0 0 3.49026,-4.964054 l 10.36689,-28.394263 a 11.659835,11.659835 0 0 1 12.81544,-7.536521 l 59.2404,9.576406 a 11.676583,11.676583 0 0 1 8.40072,5.965578 l 33.777,62.27846 a 11.529203,11.529203 0 0 0 10.8727,6.012475 l 16.55689,-1.07521 a 11.676583,11.676583 0 0 1 11.51915,7.14462 l 82.7979,197.36976 a 32.246262,32.246262 0 0 1 0.96467,22.34829 l -37.3376,116.17966 a 11.679933,11.679933 0 0 1 -5.81149,6.84316 l -49.51996,25.26912 a 11.723478,11.723478 0 0 0 -6.05937,13.12695 l 47.47338,201.07438 a 11.716778,11.716778 0 0 1 -5.95218,13.06665 l -105.01891,55.03004 a 11.70003,11.70003 0 0 1 -4.78987,1.31302 l -35.18718,1.86237 a 11.5493,11.5493 0 0 1 -3.47349,-0.34166 L 564.03677,732.83165 a 23.580937,23.580937 0 0 1 -11.55599,-6.87334 l -22.97132,-24.85712 a 11.666535,11.666535 0 0 0 -8.03226,-3.74145 l -41.87626,-1.90256 a 11.663185,11.663185 0 0 0 -9.14766,3.79171 l -8.68207,9.51611 a 6.2067437,6.2067437 0 0 0 -0.16078,8.17294 l 18.70062,22.1976 a 7.7039996,7.7039996 0 0 1 -1.34653,11.18419 l -16.03437,11.70339 a 11.710079,11.710079 0 0 1 -6.27708,2.22745 l -183.47576,9.41228 a 11.669885,11.669885 0 0 1 -10.58463,-5.63397 l -29.57666,-49.00082 a 11.720127,11.720127 0 0 1 -1.44701,-8.4275 L 292.8158,414.09038 a 48.910347,48.910347 0 0 1 11.211,-22.46218 L 409.55149,271.88795 c 1.40012,-1.5877 2.34469,-3.5338 2.72989,-5.62057 L 443.16437,98.544614 a 11.696681,11.696681 0 0 1 6.93025,-8.651925 l 24.56572,-10.433891 a 11.663185,11.663185 0 0 1 12.75178,2.438488 z"
       id="path1103"
       style="fill:#ffffff;stroke-width:3.34957" />
  </g>
  <g
     inkscape:groupmode="layer"
     id="layer3"
     inkscape:label="welcome"
     sodipodi:insensitive="true">
    <text
       xml:space="preserve"
       style="font-style:normal;font-variant:normal;font-weight:normal;font-stretch:normal;font-size:209.704px;line-height:1.25;font-family:'Tw Cen MT';-inkscape-font-specification:'Tw Cen MT, Normal';font-variant-ligatures:normal;font-variant-caps:normal;font-variant-numeric:normal;text-align:start;letter-spacing:0px;word-spacing:0px;writing-mode:lr-tb;text-anchor:start;fill:#000000;fill-opacity:1;stroke:none;stroke-width:5.2426"
       x="64.051796"
       y="524.26611"
       id="text4293"><tspan
         sodipodi:role="line"
         id="tspan4291"
         x="64.051796"
         y="524.26611"
         style="font-style:normal;font-variant:normal;font-weight:bold;font-stretch:normal;font-family:'Referenz Grotesk';-inkscape-font-specification:'Referenz Grotesk Bold';stroke-width:5.2426">THE LÄND</tspan></text>
    <text
       xml:space="preserve"
       style="font-style:normal;font-variant:normal;font-weight:normal;font-stretch:normal;font-size:72.9031px;line-height:1.25;font-family:'Tw Cen MT';-inkscape-font-specification:'Tw Cen MT, Normal';font-variant-ligatures:normal;font-variant-caps:normal;font-variant-numeric:normal;text-align:start;letter-spacing:0px;word-spacing:0px;writing-mode:lr-tb;text-anchor:start;fill:#000000;fill-opacity:1;stroke:none;stroke-width:1.82258"
       x="45.347328"
       y="339.24039"
       id="text7037"><tspan
         sodipodi:role="line"
         id="tspan7035"
         x="45.347328"
         y="339.24039"
         style="font-style:normal;font-variant:normal;font-weight:normal;font-stretch:normal;font-family:Erato;-inkscape-font-specification:Erato;stroke-width:1.82258">Willkommen in</tspan></text>
  </g>
</svg>
