<?xml version="1.0" encoding="UTF-8" standalone="no"?>
<!-- Created with Inkscape (http://www.inkscape.org/) -->

<svg
   width="297mm"
   height="210mm"
   viewBox="0 0 1122.5197 793.70081"
   version="1.1"
   id="svg5"
   inkscape:version="1.1.1 (3bf5ae0d25, 2021-09-20, custom)"
   sodipodi:docname="willkommen_in_the_laend.svg"
   xmlns:inkscape="http://www.inkscape.org/namespaces/inkscape"
   xmlns:sodipodi="http://sodipodi.sourceforge.net/DTD/sodipodi-0.dtd"
   xmlns="http://www.w3.org/2000/svg"
   xmlns:svg="http://www.w3.org/2000/svg">
  <sodipodi:namedview
     id="namedview7"
     pagecolor="#ffffff"
     bordercolor="#666666"
     borderopacity="1.0"
     inkscape:pageshadow="2"
     inkscape:pageopacity="0.0"
     inkscape:pagecheckerboard="0"
     inkscape:document-units="mm"
     showgrid="false"
     inkscape:zoom="1.079071"
     inkscape:cx="475.40894"
     inkscape:cy="504.60072"
     inkscape:window-width="2556"
     inkscape:window-height="1392"
     inkscape:window-x="0"
     inkscape:window-y="46"
     inkscape:window-maximized="1"
     inkscape:current-layer="layer3" />
  <defs
     id="defs2" />
  <g
     inkscape:label="bg"
     inkscape:groupmode="layer"
     id="layer1"
     sodipodi:insensitive="true">
    <rect
       style="fill:#ffff00;fill-rule:evenodd;stroke-width:0.695305;stroke-miterlimit:10;paint-order:stroke markers fill;stop-color:#000000"
       id="rect846"
       x="-0.70079595"
       y="-2.1476407"
       width="0"
       height="0"
       rx="1122.5197" />
    <path
       id="path6635"
       style="fill:#ffff00;fill-rule:evenodd;stroke-width:1.20207;stroke-miterlimit:10;paint-order:stroke markers fill;stop-color:#000000"
       d="M 0,0 H 1122.5197 V 793.70081 H 0 Z" />
  </g>
  <g
     inkscape:groupmode="layer"
     id="layer2"
     inkscape:label="bawue-siluette"
     sodipodi:insensitive="true">
    <path
       d="m 487.41212,81.897286 52.67861,52.028784 a 8.1494917,8.1494917 0 0 0 10.95643,0.46225 L 638.8426,61.066329 a 11.676583,11.676583 0 0 0 3.49026,-4.964054 l 10.36689,-28.394263 a 11.659835,11.659835 0 0 1 12.81544,-7.536521 l 59.2404,9.576406 a 11.676583,11.676583 0 0 1 8.40072,5.965578 l 33.777,62.27846 a 11.529203,11.529203 0 0 0 10.8727,6.012475 l 16.55689,-1.07521 a 11.676583,11.676583 0 0 1 11.51915,7.14462 l 82.7979,197.36976 a 32.246262,32.246262 0 0 1 0.96467,22.34829 l -37.3376,116.17966 a 11.679933,11.679933 0 0 1 -5.81149,6.84316 l -49.51996,25.26912 a 11.723478,11.723478 0 0 0 -6.05937,13.12695 l 47.47338,201.07438 a 11.716778,11.716778 0 0 1 -5.95218,13.06665 l -105.01891,55.03004 a 11.70003,11.70003 0 0 1 -4.78987,1.31302 l -35.18718,1.86237 a 11.5493,11.5493 0 0 1 -3.47349,-0.34166 L 564.03677,732.83165 a 23.580937,23.580937 0 0 1 -11.55599,-6.87334 l -22.97132,-24.85712 a 11.666535,11.666535 0 0 0 -8.03226,-3.74145 l -41.87626,-1.90256 a 11.663185,11.663185 0 0 0 -9.14766,3.79171 l -8.68207,9.51611 a 6.2067437,6.2067437 0 0 0 -0.16078,8.17294 l 18.70062,22.1976 a 7.7039996,7.7039996 0 0 1 -1.34653,11.18419 l -16.03437,11.70339 a 11.710079,11.710079 0 0 1 -6.27708,2.22745 l -183.47576,9.41228 a 11.669885,11.669885 0 0 1 -10.58463,-5.63397 l -29.57666,-49.00082 a 11.720127,11.720127 0 0 1 -1.44701,-8.4275 L 292.8158,414.09038 a 48.910347,48.910347 0 0 1 11.211,-22.46218 L 409.55149,271.88795 c 1.40012,-1.5877 2.34469,-3.5338 2.72989,-5.62057 L 443.16437,98.544614 a 11.696681,11.696681 0 0 1 6.93025,-8.651925 l 24.56572,-10.433891 a 11.663185,11.663185 0 0 1 12.75178,2.438488 z"
       id="path1103"
       style="fill:#ffffff;stroke-width:3.34957" />
  </g>
  <g
     inkscape:groupmode="layer"
     id="layer3"
     inkscape:label="welcome"
     sodipodi:insensitive="true">
    <g
       aria-label="THE LÄND"
       id="text4293"
       style="font-size:209.704px;line-height:1.25;font-family:'Tw Cen MT';-inkscape-font-specification:'Tw Cen MT, Normal';letter-spacing:0px;word-spacing:0px;stroke-width:5.2426">
      <path
         d="M 184.8413,404.31543 V 377.47332 H 69.084692 v 26.84211 H 111.02549 V 524.26611 H 143.1102 V 404.31543 Z"
         style="font-weight:bold;font-family:'Referenz Grotesk';-inkscape-font-specification:'Referenz Grotesk Bold'"
         id="path896" />
      <path
         d="m 291.1613,524.26611 h 32.08472 V 377.47332 H 291.1613 v 58.92682 h -53.68422 v -58.92682 h -32.08471 v 146.79279 h 32.08471 v -60.39475 h 53.68422 z"
         style="font-weight:bold;font-family:'Referenz Grotesk';-inkscape-font-specification:'Referenz Grotesk Bold'"
         id="path893" />
      <path
         d="m 440.68007,402.42809 v -24.95477 h -86.39805 v 146.79279 h 98.98028 v -24.95477 h -66.89557 v -36.4885 h 54.31334 v -24.95477 h -54.31334 v -35.43998 z"
         style="font-weight:bold;font-family:'Referenz Grotesk';-inkscape-font-specification:'Referenz Grotesk Bold'"
         id="path890" />
      <path
         d="M 617.66996,524.26611 V 496.79489 H 552.87143 V 377.47332 h -32.08471 v 146.79279 z"
         style="font-weight:bold;font-family:'Referenz Grotesk';-inkscape-font-specification:'Referenz Grotesk Bold'"
         id="path887" />
      <path
         d="m 682.25899,337.41985 c -3.14556,-2.93585 -7.12994,-4.61348 -11.95313,-4.61348 -4.82319,0 -8.80757,1.67763 -11.74342,4.61348 -3.14556,2.93586 -4.61349,6.92024 -4.61349,11.74343 0,4.82319 1.46793,8.80757 4.40378,11.74342 2.93586,2.93586 6.92023,4.40379 11.95313,4.40379 4.82319,0 8.80757,-1.46793 11.95313,-4.40379 2.93585,-2.93585 4.61349,-6.92023 4.61349,-11.74342 0,-4.61349 -1.67764,-8.59787 -4.61349,-11.74343 z m 46.34458,0 c -3.14556,-2.93585 -7.12993,-4.61348 -11.95313,-4.61348 -4.82319,0 -8.80756,1.67763 -11.74342,4.61348 -3.14556,2.93586 -4.61349,6.92024 -4.61349,11.74343 0,4.82319 1.46793,8.80757 4.40379,11.74342 2.93585,2.93586 6.92023,4.40379 11.95312,4.40379 4.8232,0 8.80757,-1.46793 11.95313,-4.40379 2.93586,-2.93585 4.61349,-6.92023 4.61349,-11.74342 0,-4.61349 -1.67763,-8.59787 -4.61349,-11.74343 z M 627.10684,524.26611 h 32.29441 l 8.59787,-29.56826 h 51.16777 l 8.80757,29.56826 h 32.29441 v -2.72615 L 714.76311,377.47332 h -41.9408 l -45.71547,144.06664 z m 47.1834,-53.89392 18.03454,-62.07239 h 2.72615 l 18.03455,62.07239 z"
         style="font-weight:bold;font-family:'Referenz Grotesk';-inkscape-font-specification:'Referenz Grotesk Bold'"
         id="path884" />
      <path
         d="m 868.05652,524.26611 h 33.55264 V 377.47332 h -30.82649 v 93.31827 h -2.72615 l -54.31334,-93.31827 h -33.76234 v 146.79279 h 30.82649 v -93.31827 h 2.72615 z"
         style="font-weight:bold;font-family:'Referenz Grotesk';-inkscape-font-specification:'Referenz Grotesk Bold'"
         id="path881" />
      <path
         d="m 932.64551,377.47332 v 146.79279 h 54.52304 c 14.25985,0 26.42275,-2.93585 36.48845,-9.22697 9.8561,-6.29112 17.1958,-14.88899 22.2287,-25.79359 5.0329,-10.90461 7.5493,-23.69656 7.5493,-38.37583 0,-14.46958 -2.5164,-27.26152 -7.5493,-38.16613 -5.0329,-10.90461 -12.3726,-19.50247 -22.2287,-25.79359 -10.0657,-6.29112 -22.2286,-9.43668 -36.48845,-9.43668 z m 79.68749,110.09459 c -5.8717,7.96876 -15.72777,11.74343 -29.56823,11.74343 h -18.03454 v -96.88325 h 18.03454 c 13.84046,0 23.69653,3.98438 29.56823,11.95313 5.8717,7.96875 9.0173,20.13158 9.0173,36.4885 0,16.56661 -3.1456,28.72944 -9.0173,36.69819 z"
         style="font-weight:bold;font-family:'Referenz Grotesk';-inkscape-font-specification:'Referenz Grotesk Bold'"
         id="path878" />
    </g>
    <g
       aria-label="Willkommen in"
       id="text7037"
       style="font-size:72.9031px;line-height:1.25;font-family:'Tw Cen MT';-inkscape-font-specification:'Tw Cen MT, Normal';letter-spacing:0px;word-spacing:0px;stroke-width:1.82258">
      <path
         d="m 95.650467,330.71072 c -2.041287,-4.66579 -5.905151,-14.1432 -7.873535,-18.8819 3.207736,-6.85289 5.686442,-11.95611 7.363213,-15.45546 0.94774,-2.04128 1.968384,-4.15547 3.426445,-5.32192 0.874838,-0.58323 1.96838,-0.80194 3.57225,-0.87484 v -2.4787 c -1.09354,0.0729 -4.957408,0.21871 -7.290308,0.21871 -2.916124,0 -5.467732,-0.0729 -7.290309,-0.21871 v 2.4787 c 3.06193,0 4.519992,0.87484 4.519992,2.47871 0,0.72903 -0.21871,2.3329 -1.385159,4.95741 l -4.592895,10.49804 c -1.822578,-4.22838 -3.645155,-9.03998 -4.447089,-11.15417 -0.729031,-1.89548 -1.16645,-3.64516 -1.16645,-4.37419 0,-1.82257 1.312256,-2.3329 4.374186,-2.4058 v -2.4787 c -1.020644,0 -6.269667,0.21871 -9.696112,0.21871 -2.041287,0 -5.613539,-0.14581 -7.654826,-0.21871 v 2.4787 c 2.332899,0 3.572252,0.43742 4.22838,1.23935 0.656128,0.65613 1.530965,2.11419 2.041287,3.35355 2.989027,6.92579 5.832248,13.70578 8.456759,20.04835 -2.624511,5.97805 -5.249023,11.8103 -7.144503,15.96578 -6.123861,-14.21611 -12.320624,-28.86963 -14.216105,-33.75414 -0.729031,-1.82257 -1.166449,-3.57225 -1.166449,-4.37418 0,-1.16645 0.364515,-2.26 4.95741,-2.47871 v -2.4787 c -2.259996,0.1458 -6.196763,0.21871 -10.13353,0.21871 -2.041287,0 -6.415473,-0.14581 -8.238051,-0.21871 v 2.4787 c 2.041287,0 3.353543,0.36452 4.082574,1.16645 0.656128,0.65613 1.530965,2.11419 2.041287,3.35354 6.925794,15.74707 12.685139,29.08834 19.173515,45.34573 h 3.207736 c 3.06193,-7.58192 5.978054,-14.0703 9.185791,-21.1419 4.374186,10.42515 6.415472,15.60127 8.456759,21.1419 h 3.06193 c 6.48838,-16.11158 12.39353,-30.25479 19.02771,-45.71024 0.65613,-1.60387 1.16645,-2.62451 2.11419,-3.28064 0.72903,-0.51032 1.82258,-0.80194 3.35354,-0.87484 v -2.4787 c -1.31225,0.0729 -4.51999,0.21871 -6.85289,0.21871 -2.91612,0 -6.26967,-0.0729 -8.23805,-0.21871 v 2.4787 c 4.6658,0.21871 5.10322,1.09355 5.10322,2.47871 0,0.51032 -0.0729,1.89548 -1.16645,4.8845 -4.08258,10.78966 -10.133533,25.58899 -13.195463,33.17091 z"
         style="font-family:Erato;-inkscape-font-specification:Erato"
         id="path1017" />
      <path
         d="m 132.90387,290.0308 c 0,-2.55161 -1.82257,-4.30129 -4.08257,-4.30129 -2.26,0 -4.22838,1.67677 -4.22838,4.30129 0,2.4787 1.89548,4.22837 4.22838,4.22837 2.3329,0 4.08257,-1.74967 4.08257,-4.22837 z m -1.02064,12.39352 -9.62321,5.39483 v 1.02064 c 2.11419,1.31226 3.35354,2.26 3.79096,3.20774 0.58323,1.45806 0.65613,2.98903 0.65613,5.61354 v 13.12256 c 0,2.18709 -0.29161,3.79096 -0.65613,4.51999 -0.43742,0.80193 -1.16645,1.45806 -4.7387,1.60387 v 2.4058 c 2.18709,-0.0729 5.32193,-0.21871 8.38386,-0.21871 2.91612,0 6.26966,0.14581 8.38385,0.21871 v -2.4058 c -3.64515,-0.29161 -4.37418,-0.65613 -4.8845,-1.38516 -0.51033,-0.72903 -0.72904,-1.89548 -0.72904,-4.88451 v -13.55998 c 0,-3.49934 0,-9.91482 0.21871,-14.2161 z"
         style="font-family:Erato;-inkscape-font-specification:Erato"
         id="path1014" />
      <path
         d="m 147.99476,330.78363 c 0,2.3329 -0.29162,3.86386 -0.65613,4.59289 -0.43742,0.80194 -1.16645,1.38516 -4.7387,1.53097 v 2.4058 c 2.18709,-0.0729 5.39483,-0.21871 8.45676,-0.21871 2.91612,0 6.26966,0.14581 8.38385,0.21871 v -2.4058 c -3.71806,-0.21871 -4.37418,-0.65613 -4.8845,-1.38516 -0.51033,-0.72903 -0.72904,-1.74968 -0.72904,-4.88451 v -32.51478 c 0,-3.28064 0.14581,-11.44579 0.43742,-16.69481 l -0.80193,-0.51032 -9.84192,5.61354 v 1.16645 c 2.04129,1.31225 2.91612,1.89548 3.42645,2.4787 0.72903,0.94774 0.94774,1.96838 0.94774,4.95741 z"
         style="font-family:Erato;-inkscape-font-specification:Erato"
         id="path1011" />
      <path
         d="m 169.86564,330.78363 c 0,2.3329 -0.29162,3.86386 -0.65613,4.59289 -0.43742,0.80194 -1.16645,1.38516 -4.7387,1.53097 v 2.4058 c 2.18709,-0.0729 5.39483,-0.21871 8.45676,-0.21871 2.91612,0 6.26966,0.14581 8.38385,0.21871 v -2.4058 c -3.71805,-0.21871 -4.37418,-0.65613 -4.8845,-1.38516 -0.51033,-0.72903 -0.72904,-1.74968 -0.72904,-4.88451 v -32.51478 c 0,-3.28064 0.14581,-11.44579 0.43742,-16.69481 l -0.80193,-0.51032 -9.84192,5.61354 v 1.16645 c 2.04129,1.31225 2.91612,1.89548 3.42645,2.4787 0.72903,0.94774 0.94774,1.96838 0.94774,4.95741 z"
         style="font-family:Erato;-inkscape-font-specification:Erato"
         id="path1008" />
      <path
         d="m 191.7365,330.71072 c 0,2.3329 -0.29161,3.93677 -0.65613,4.6658 -0.43742,0.80194 -1.16645,1.38516 -4.7387,1.53097 v 2.4058 c 2.1871,-0.0729 5.39483,-0.21871 8.45676,-0.21871 2.91613,0 6.19677,0.14581 8.31095,0.21871 v -2.4058 c -3.64515,-0.29161 -4.37418,-0.65613 -4.8845,-1.38516 -0.51032,-0.72903 -0.72903,-1.82258 -0.72903,-4.95741 v -9.11289 c 1.53096,0.14581 2.25999,0.72903 4.37418,2.98903 l 7.87354,8.52966 c 1.09354,1.16645 1.38516,1.96838 1.38516,2.62451 0,0.72903 -0.43742,1.23935 -3.20774,1.31226 v 2.4058 c 2.55161,-0.0729 6.77999,-0.21871 8.52966,-0.21871 1.96839,0 6.05096,0.14581 8.38386,0.21871 v -2.4058 c -2.11419,-0.0729 -3.57225,-0.58323 -4.5929,-1.38516 -0.58322,-0.43742 -1.53096,-1.38516 -2.25999,-2.18709 l -13.48708,-14.43482 8.52967,-7.87353 c 1.74967,-1.67677 3.49935,-3.06193 5.90515,-3.86387 0.72903,-0.21871 1.53096,-0.43742 2.84322,-0.58322 v -2.4058 c -1.96839,0.0729 -3.93677,0.1458 -7.0716,0.1458 -1.74968,0 -6.12386,-0.0729 -8.67547,-0.1458 v 2.4058 c 3.13483,0 4.00967,0.65613 4.00967,1.45806 0,0.72903 -0.21871,1.82258 -2.18709,3.93677 -2.62452,2.77032 -4.08258,4.15547 -5.90515,5.75934 -1.74968,1.53097 -3.20774,1.74968 -4.44709,1.89548 v -21.50641 c 0,-3.28064 0.1458,-11.44579 0.43741,-16.69481 l -0.80193,-0.51032 -9.76901,5.61354 v 1.16645 c 2.11419,1.38515 2.91612,1.96838 3.42644,2.5516 0.72903,0.94774 0.94774,2.26 0.94774,5.10322 z"
         style="font-family:Erato;-inkscape-font-specification:Erato"
         id="path1005" />
      <path
         d="m 244.80999,337.49071 c -8.01934,0 -11.6645,-8.01934 -11.6645,-16.98642 0,-8.67547 4.08257,-14.58062 11.15418,-14.58062 6.70708,0 11.44578,6.70709 11.44578,17.05933 0,8.82127 -3.86386,14.50771 -10.93546,14.50771 z m -18.22578,-15.01804 c 0,9.91483 7.14451,17.93417 17.49675,17.93417 10.42514,0 18.22577,-7.94644 18.22577,-19.39223 0,-10.42514 -7.1445,-18.07997 -16.98642,-18.07997 -9.62321,0 -18.7361,6.85289 -18.7361,19.53803 z"
         style="font-family:Erato;-inkscape-font-specification:Erato"
         id="path1002" />
      <path
         d="m 300.58088,309.49592 c -1.09355,-3.71806 -3.93677,-6.41547 -8.31096,-6.41547 -2.98902,0 -6.63418,1.60387 -12.75804,5.97805 v -6.19676 l -0.72903,-0.43742 -9.4774,5.39483 v 1.02064 c 2.18709,1.31226 3.42644,2.26 3.79096,3.20774 0.58322,1.45806 0.65613,2.84322 0.65613,5.46773 v 13.26837 c 0,2.3329 -0.29162,3.79096 -0.65613,4.51999 -0.43742,0.80193 -1.09355,1.45806 -4.7387,1.60387 v 2.4058 c 2.18709,-0.0729 5.46773,-0.21871 8.52966,-0.21871 2.91612,0 6.12386,0.14581 8.23805,0.21871 v -2.4058 c -3.71806,-0.29161 -4.44709,-0.65613 -4.88451,-1.38516 -0.51032,-0.72903 -0.72903,-1.74968 -0.72903,-4.88451 v -13.63288 c 0,-3.42644 0.0729,-4.88451 1.31226,-6.12386 1.60386,-1.67677 5.10321,-2.91612 7.72772,-2.91612 3.13484,0 4.95741,1.09354 5.90516,3.57225 1.02064,2.84322 1.16644,9.18579 1.16644,13.48707 0,5.83225 -0.1458,9.11289 -1.02064,10.35224 -0.43742,0.72903 -1.23935,1.23936 -4.6658,1.53097 v 2.4058 c 2.69742,-0.0729 6.48838,-0.21871 8.74837,-0.21871 3.28064,0 5.75935,0.14581 8.09225,0.21871 v -2.4058 c -3.71806,-0.36452 -4.30128,-0.80194 -4.88451,-1.53097 -0.58322,-0.72903 -0.65613,-2.04128 -0.65613,-5.39483 v -12.83094 c 0,-3.42645 0,-4.81161 1.31226,-6.12386 1.67677,-1.60387 4.95741,-3.06193 7.87353,-3.06193 3.13484,0 4.81161,1.09354 5.75935,3.57225 1.02064,2.84322 1.16645,9.18579 1.16645,13.48707 0,5.83225 -0.14581,9.11289 -1.02065,10.35224 -0.43741,0.72903 -1.23935,1.23936 -4.66579,1.53097 v 2.4058 c 2.69741,-0.0729 6.34257,-0.21871 8.60256,-0.21871 3.28064,0 5.90515,0.14581 8.23805,0.21871 v -2.4058 c -3.71806,-0.36452 -4.30128,-0.80194 -4.88451,-1.53097 -0.58322,-0.72903 -0.65612,-2.04128 -0.65612,-5.39483 v -11.7374 c 0,-5.97805 -0.29162,-8.89417 -2.04129,-11.51869 -1.53096,-2.33289 -4.08257,-3.64515 -6.92579,-3.64515 -2.98903,0 -7.87354,2.04129 -13.41417,6.41547 z"
         style="font-family:Erato;-inkscape-font-specification:Erato"
         id="path999" />
      <path
         d="m 365.75618,309.49592 c -1.09354,-3.71806 -3.93676,-6.41547 -8.31095,-6.41547 -2.98903,0 -6.63418,1.60387 -12.75804,5.97805 v -6.19676 l -0.72903,-0.43742 -9.47741,5.39483 v 1.02064 c 2.1871,1.31226 3.42645,2.26 3.79097,3.20774 0.58322,1.45806 0.65612,2.84322 0.65612,5.46773 v 13.26837 c 0,2.3329 -0.29161,3.79096 -0.65612,4.51999 -0.43742,0.80193 -1.09355,1.45806 -4.73871,1.60387 v 2.4058 c 2.1871,-0.0729 5.46774,-0.21871 8.52967,-0.21871 2.91612,0 6.12386,0.14581 8.23805,0.21871 v -2.4058 c -3.71806,-0.29161 -4.44709,-0.65613 -4.88451,-1.38516 -0.51032,-0.72903 -0.72903,-1.74968 -0.72903,-4.88451 v -13.63288 c 0,-3.42644 0.0729,-4.88451 1.31225,-6.12386 1.60387,-1.67677 5.10322,-2.91612 7.72773,-2.91612 3.13484,0 4.95741,1.09354 5.90515,3.57225 1.02065,2.84322 1.16645,9.18579 1.16645,13.48707 0,5.83225 -0.1458,9.11289 -1.02064,10.35224 -0.43742,0.72903 -1.23935,1.23936 -4.6658,1.53097 v 2.4058 c 2.69742,-0.0729 6.48838,-0.21871 8.74837,-0.21871 3.28064,0 5.75935,0.14581 8.09225,0.21871 v -2.4058 c -3.71806,-0.36452 -4.30129,-0.80194 -4.88451,-1.53097 -0.58323,-0.72903 -0.65613,-2.04128 -0.65613,-5.39483 v -12.83094 c 0,-3.42645 0,-4.81161 1.31226,-6.12386 1.67677,-1.60387 4.95741,-3.06193 7.87353,-3.06193 3.13484,0 4.81161,1.09354 5.75935,3.57225 1.02064,2.84322 1.16645,9.18579 1.16645,13.48707 0,5.83225 -0.14581,9.11289 -1.02065,10.35224 -0.43742,0.72903 -1.23935,1.23936 -4.6658,1.53097 v 2.4058 c 2.69742,-0.0729 6.34257,-0.21871 8.60257,-0.21871 3.28064,0 5.90515,0.14581 8.23805,0.21871 v -2.4058 c -3.71806,-0.36452 -4.30128,-0.80194 -4.88451,-1.53097 -0.58322,-0.72903 -0.65612,-2.04128 -0.65612,-5.39483 v -11.7374 c 0,-5.97805 -0.29162,-8.89417 -2.04129,-11.51869 -1.53097,-2.33289 -4.08258,-3.64515 -6.9258,-3.64515 -2.98902,0 -7.87353,2.04129 -13.41417,6.41547 z"
         style="font-family:Erato;-inkscape-font-specification:Erato"
         id="path996" />
      <path
         d="m 429.10893,317.58817 c 0,-10.13353 -5.75935,-14.65353 -13.48707,-14.65353 -9.11289,0 -16.69481,8.01934 -16.69481,19.24642 0,11.08127 6.85289,18.22578 16.40319,18.22578 4.95741,0 9.84192,-2.62452 14.28901,-7.21741 l -1.53096,-1.89548 c -3.79096,2.62451 -7.21741,3.64515 -10.35224,3.64515 -6.9258,0 -12.97676,-4.44708 -12.97676,-15.16384 0,-0.43742 0,-1.38516 0.14581,-2.11419 z m -23.83931,-2.62452 c 0.72903,-5.10321 4.37418,-9.11288 9.5503,-9.11288 5.10322,0 7.58192,3.20773 7.58192,6.77999 0,1.53096 -0.80193,1.74967 -2.18709,1.89548 -2.3329,0.29161 -7.29031,0.43741 -14.94513,0.43741 z"
         style="font-family:Erato;-inkscape-font-specification:Erato"
         id="path993" />
      <path
         d="m 473.57975,336.90749 c -3.71806,-0.36452 -4.37419,-0.80194 -4.88451,-1.53097 -0.58322,-0.72903 -0.65613,-2.04128 -0.65613,-5.39483 v -11.8832 c 0,-6.05096 -0.21871,-8.89418 -2.04128,-11.51869 -1.53097,-2.3329 -4.15548,-3.49935 -6.9987,-3.49935 -2.98903,0 -7.21741,1.60387 -13.34127,5.97805 v -6.19676 l -0.72903,-0.43742 -9.4774,5.39483 v 1.02064 c 2.18709,1.31226 3.42644,2.26 3.79096,3.20774 0.58322,1.45806 0.65613,2.84322 0.65613,5.46773 v 13.26837 c 0,2.3329 -0.29162,3.79096 -0.65613,4.51999 -0.43742,0.80193 -1.09355,1.45806 -4.7387,1.60387 v 2.4058 c 2.18709,-0.0729 5.39483,-0.21871 8.45676,-0.21871 2.91612,0 6.19676,0.14581 8.31095,0.21871 v -2.4058 c -3.71806,-0.29161 -4.44709,-0.65613 -4.88451,-1.38516 -0.51032,-0.72903 -0.72903,-1.74968 -0.72903,-4.88451 v -13.48707 c 0,-3.42645 0.0729,-4.95741 1.31226,-6.19677 1.60386,-1.67677 5.32192,-2.98902 8.16514,-2.98902 3.13484,0 5.17612,1.09354 6.12386,3.57225 1.02065,2.84322 1.09355,9.18579 1.09355,13.55998 0,6.05095 -0.14581,9.25869 -0.94774,10.27933 -0.58322,0.72903 -1.60387,1.23936 -4.6658,1.53097 v 2.4058 c 2.69742,-0.0729 6.41547,-0.21871 8.67547,-0.21871 3.28064,0 5.83225,0.14581 8.16515,0.21871 z"
         style="font-family:Erato;-inkscape-font-specification:Erato"
         id="path990" />
      <path
         d="m 506.53199,290.0308 c 0,-2.55161 -1.82258,-4.30129 -4.08258,-4.30129 -2.25999,0 -4.22838,1.67677 -4.22838,4.30129 0,2.4787 1.89548,4.22837 4.22838,4.22837 2.3329,0 4.08258,-1.74967 4.08258,-4.22837 z m -1.02065,12.39352 -9.62321,5.39483 v 1.02064 c 2.11419,1.31226 3.35355,2.26 3.79096,3.20774 0.58323,1.45806 0.65613,2.98903 0.65613,5.61354 v 13.12256 c 0,2.18709 -0.29161,3.79096 -0.65613,4.51999 -0.43741,0.80193 -1.16645,1.45806 -4.7387,1.60387 v 2.4058 c 2.1871,-0.0729 5.32193,-0.21871 8.38386,-0.21871 2.91612,0 6.26967,0.14581 8.38386,0.21871 v -2.4058 c -3.64516,-0.29161 -4.37419,-0.65613 -4.88451,-1.38516 -0.51032,-0.72903 -0.72903,-1.89548 -0.72903,-4.88451 v -13.55998 c 0,-3.49934 0,-9.91482 0.21871,-14.2161 z"
         style="font-family:Erato;-inkscape-font-specification:Erato"
         id="path987" />
      <path
         d="m 555.37702,336.90749 c -3.71806,-0.36452 -4.37419,-0.80194 -4.88451,-1.53097 -0.58322,-0.72903 -0.65613,-2.04128 -0.65613,-5.39483 v -11.8832 c 0,-6.05096 -0.21871,-8.89418 -2.04128,-11.51869 -1.53097,-2.3329 -4.15548,-3.49935 -6.9987,-3.49935 -2.98903,0 -7.21741,1.60387 -13.34127,5.97805 v -6.19676 l -0.72903,-0.43742 -9.4774,5.39483 v 1.02064 c 2.18709,1.31226 3.42644,2.26 3.79096,3.20774 0.58322,1.45806 0.65613,2.84322 0.65613,5.46773 v 13.26837 c 0,2.3329 -0.29161,3.79096 -0.65613,4.51999 -0.43742,0.80193 -1.09355,1.45806 -4.7387,1.60387 v 2.4058 c 2.18709,-0.0729 5.39483,-0.21871 8.45676,-0.21871 2.91612,0 6.19676,0.14581 8.31095,0.21871 v -2.4058 c -3.71806,-0.29161 -4.44709,-0.65613 -4.88451,-1.38516 -0.51032,-0.72903 -0.72903,-1.74968 -0.72903,-4.88451 v -13.48707 c 0,-3.42645 0.0729,-4.95741 1.31226,-6.19677 1.60387,-1.67677 5.32192,-2.98902 8.16515,-2.98902 3.13483,0 5.17612,1.09354 6.12386,3.57225 1.02064,2.84322 1.09354,9.18579 1.09354,13.55998 0,6.05095 -0.1458,9.25869 -0.94774,10.27933 -0.58322,0.72903 -1.60387,1.23936 -4.6658,1.53097 v 2.4058 c 2.69742,-0.0729 6.41548,-0.21871 8.67547,-0.21871 3.28064,0 5.83225,0.14581 8.16515,0.21871 z"
         style="font-family:Erato;-inkscape-font-specification:Erato"
         id="path984" />
    </g>
  </g>
</svg>
